<?xml version="1.0" encoding="utf-8"?>
<!-- Generator: Adobe Illustrator 23.0.5, SVG Export Plug-In . SVG Version: 6.00 Build 0)  -->
<svg version="1.1" id="Layer_1" xmlns="http://www.w3.org/2000/svg" xmlns:xlink="http://www.w3.org/1999/xlink" x="0px" y="0px"
	 viewBox="0 0 2340 1560" style="enable-background:new 0 0 2340 1560;" xml:space="preserve">
<style type="text/css">
	.st0{fill:#D2F1F9;}
	.st1{fill:#BDE3FF;}
	.st2{fill:url(#SVGID_1_);}
	.st3{fill:url(#SVGID_2_);}
	.st4{fill:#D2EBFD;}
	.st5{opacity:0.15;fill:#D2EBFD;}
	.st6{fill:#FCBD60;}
	.st7{fill:#A4D9F4;}
	.st8{fill:#FFFFFF;}
	.st9{fill:#A76D45;}
	.st10{fill:#B7D256;}
	.st11{fill:#AFB953;}
	.st12{fill:#D1EC72;}
	.st13{fill:#FDDB12;}
	.st14{fill:#85C4BC;}
	.st15{fill:#89C4C0;}
	.st16{fill:#F9D8AD;}
	.st17{fill:#DD9E4A;}
	.st18{fill:#EF3C56;}
	.st19{fill:#FF8B73;}
	.st20{fill:#F0DDCF;}
	.st21{fill:#376F92;}
	.st22{fill:#1E3865;}
	.st23{fill:#FFBA9C;}
	.st24{fill:#C4AFA1;}
	.st25{fill:none;}
	.st26{fill:#491F3E;}
	.st27{opacity:0.5;fill:#FCBD60;}
	.st28{fill:url(#SVGID_3_);}
	.st29{fill:#997B6C;}
	.st30{opacity:0.33;fill:url(#SVGID_4_);}
	.st31{fill:url(#SVGID_5_);}
	.st32{opacity:0.33;fill:url(#SVGID_6_);}
	.st33{opacity:0.5;}
	.st34{fill:url(#SVGID_7_);}
	.st35{opacity:0.33;fill:url(#SVGID_8_);}
	.st36{fill:url(#SVGID_9_);}
	.st37{opacity:0.33;fill:url(#SVGID_10_);}
	.st38{opacity:0.54;fill:url(#SVGID_11_);}
	.st39{opacity:0.54;fill:url(#SVGID_12_);}
	.st40{fill:url(#SVGID_13_);}
	.st41{opacity:0.54;fill:url(#SVGID_14_);}
	.st42{fill:none;stroke:#F9D8AD;stroke-miterlimit:10;}
	.st43{fill:url(#SVGID_15_);}
	.st44{fill:url(#SVGID_16_);}
	.st45{fill:none;stroke:#FFFFFF;stroke-miterlimit:10;}
</style>
<g>
	<g>
		<path class="st0" d="M795.17,1570.43c3.22,0,3.22-5,0-5C791.95,1565.43,791.95,1570.43,795.17,1570.43L795.17,1570.43z"/>
	</g>
</g>
<g>
	<g>
		<path class="st0" d="M1635.23,1130.83c-22.99,32.64-48.9,63.24-77.43,91.25c-28.52,28.01-59.66,53.45-92.97,75.86
			c-16.66,11.19-33.84,21.67-51.54,31.26c-17.67,9.64-35.86,18.41-54.43,26.34c-37.16,15.82-76,28.08-115.8,36.38
			c-19.9,4.12-40.04,7.27-60.32,9.32c-20.27,2.1-40.68,3.16-61.11,3.11c-40.85-0.04-81.79-4.37-121.84-12.97
			c-40.06-8.58-79.24-21.41-116.64-38.15c-37.41-16.73-73.03-37.38-106.13-61.37c-16.55-12-32.42-24.9-47.67-38.46
			c-15.18-13.65-29.74-27.96-43.43-43.06c-27.42-30.14-51.79-62.92-72.62-97.7c-41.69-69.58-69.49-146.74-82.7-226.07
			c-13.17-79.34-11.71-161.04,5.05-239.79c4.22-19.67,9.24-39.19,15.31-58.41c5.99-19.24,12.97-38.18,20.78-56.79
			c15.67-37.19,34.89-72.98,57.4-106.67c22.53-33.66,48.32-65.3,77.14-94.06c14.4-14.38,29.52-28.08,45.31-41
			c15.82-12.87,32.27-25.02,49.35-36.24c17.06-11.24,34.7-21.64,52.85-31.08c9.07-4.73,18.26-9.24,27.56-13.52
			c2.31-1.1,4.66-2.12,7.01-3.14l7.04-3.07c2.34-1.05,4.71-2,7.08-2.97l7.11-2.9c38.04-15.19,77.64-26.56,117.98-34.03
			c40.35-7.44,81.47-10.97,122.57-10.42c41.1,0.58,82.21,5.13,122.45,13.87c40.25,8.68,79.68,21.4,117.38,38.04
			c18.87,8.28,37.29,17.58,55.23,27.71c17.91,10.18,35.34,21.19,52.15,33.08c67.24,47.52,125.01,108.58,168.08,178.57
			c21.53,34.99,39.37,72.17,53.14,110.71c13.8,38.52,23.58,78.37,29.27,118.66c5.67,40.3,7.3,81.01,5.03,121.37
			c-1.15,20.18-3.21,40.27-6.28,60.18c-3,19.92-7.02,39.65-11.89,59.13c-9.76,38.96-23.12,76.91-39.81,113.25
			C1678.22,1063.42,1658.19,1098.16,1635.23,1130.83z M1631.96,1128.53c22.73-32.52,42.11-67.37,57.61-103.82
			c15.51-36.45,27.14-74.49,34.65-113.23c3.77-19.37,6.47-38.91,8.24-58.51c1.7-19.6,2.47-39.26,2.19-58.87
			c-0.51-39.23-4.94-78.26-13-116.37c-16.11-76.26-46.65-148.78-88.94-213.17c-21.15-32.2-45.26-62.39-72.1-89.92
			c-13.41-13.77-27.49-26.88-42.14-39.31c-14.67-12.41-29.91-24.14-45.67-35.13c-31.56-21.93-65.13-40.9-100.2-56.5
			c-35.08-15.57-71.65-27.83-109.09-36.42c-74.89-17.19-153.28-19.72-229.4-7.12c-76.14,12.57-149.78,40.26-215.9,80.64
			c-16.51,10.13-32.61,20.97-48.11,32.66c-15.53,11.64-30.52,24.04-44.87,37.18c-28.68,26.29-54.93,55.39-78.15,86.86
			c-23.18,31.5-43.37,65.31-59.89,100.91c-8.29,17.79-15.61,36.04-22.06,54.61c-6.36,18.6-11.9,37.5-16.32,56.67
			c-4.46,19.17-7.97,38.57-10.42,58.11c-2.49,19.54-3.97,39.21-4.43,58.91c-0.94,39.4,2.18,78.9,9.34,117.63
			c7.16,38.73,18.33,76.68,33.26,113.01c14.9,36.34,33.53,71.06,55.39,103.46c21.84,32.41,46.82,62.58,74.45,89.94
			c13.83,13.66,28.22,26.73,43.24,39c14.96,12.35,30.56,23.89,46.57,34.78c32.09,21.69,66.06,40.45,101.45,55.91
			c35.39,15.47,72.19,27.63,109.83,36.31c75.27,17.34,153.93,21.01,231.16,10.04c38.61-5.46,76.83-14.64,113.9-27.55
			c18.54-6.43,36.77-13.85,54.63-22.13c17.83-8.34,35.3-17.54,52.23-27.69c33.88-20.27,65.7-44.18,94.67-71.22
			C1583.07,1191.17,1609.2,1161.03,1631.96,1128.53z"/>
	</g>
	<path class="st1" d="M1789.65,760.02c0,4.39-0.05,8.76-0.14,13.13c-1.71,80.76-19.16,157.64-49.42,227.69
		c-6.77,15.69-14.19,31.04-22.21,46.01c-20.36,37.98-44.64,73.56-72.31,106.18c-20.04,23.64-41.85,45.72-65.24,66.04
		c-17.15,14.92-35.15,28.89-53.91,41.83c-0.63,0.44-1.25,0.87-1.88,1.3c-20.46,14-41.83,26.78-63.99,38.24
		c-0.22,0.11-0.44,0.23-0.66,0.34c-41.94,21.63-86.73,38.52-133.64,49.97c-29.59,7.22-60.03,12.27-91.14,14.98
		c-17.63,1.55-35.47,2.33-53.5,2.33c-15.4,0-30.67-0.57-45.79-1.7c-29.34-2.19-58.1-6.45-86.14-12.66
		c-20.07-4.44-39.76-9.87-59.03-16.24c-30.22-9.98-59.39-22.28-87.3-36.68c-29.06-14.98-56.76-32.24-82.86-51.54
		c-8.82-6.52-17.45-13.27-25.9-20.27c-7.29-6.01-14.44-12.2-21.44-18.55c-62.54-56.73-113.2-126.32-147.84-204.6
		c-3.94-8.91-7.68-17.94-11.2-27.07c-16.2-41.99-27.87-86.23-34.41-132.13c-0.29-2.02-0.57-4.04-0.84-6.06
		c-3.49-26.35-5.29-53.24-5.29-80.54c0-63.52,9.74-124.76,27.81-182.32c0.84-2.67,1.7-5.34,2.57-8
		c5.55-16.84,11.81-33.35,18.75-49.5c2.4-5.59,4.88-11.13,7.44-16.63c5.33-11.44,11-22.69,17.01-33.73
		c103.03-189.35,303.74-317.85,534.46-317.85c77.83,0,152.25,14.62,220.65,41.27c11.49,4.47,22.81,9.29,33.95,14.43
		c45.35,20.95,87.7,47.31,126.18,78.28c4.02,3.22,7.98,6.49,11.91,9.82c36.24,30.68,68.84,65.52,97.05,103.8
		c11.94,16.19,23.1,33,33.41,50.36c13.92,23.44,26.31,47.89,37.03,73.22c29.45,69.56,46.32,145.73,47.76,225.68
		C1789.62,752.57,1789.65,756.29,1789.65,760.02z"/>
	<g>
		<linearGradient id="SVGID_1_" gradientUnits="userSpaceOnUse" x1="408.8237" y1="443.5179" x2="408.4236" y2="463.5257">
			<stop  offset="0" style="stop-color:#FFFFFF"/>
			<stop  offset="0.3104" style="stop-color:#FBFEFF"/>
			<stop  offset="0.5954" style="stop-color:#F0FAFD"/>
			<stop  offset="0.8697" style="stop-color:#DEF5FB"/>
			<stop  offset="1" style="stop-color:#D2F1F9"/>
		</linearGradient>
		<path class="st2" d="M400.74,456.55l15.84-9.5c-3.21,3.94-6.22,8-9.02,12.17C405.29,458.33,403.01,457.44,400.74,456.55z"/>
	</g>
	<g>
		<linearGradient id="SVGID_2_" gradientUnits="userSpaceOnUse" x1="1183.1011" y1="335.961" x2="1179.2439" y2="1431.3895">
			<stop  offset="0" style="stop-color:#FFFFFF;stop-opacity:0.8"/>
			<stop  offset="0.2889" style="stop-color:#F7FDFE;stop-opacity:0.8578"/>
			<stop  offset="0.7255" style="stop-color:#E3F6FB;stop-opacity:0.9451"/>
			<stop  offset="1" style="stop-color:#D2F1F9"/>
		</linearGradient>
		<path class="st3" d="M1789.65,760.02c0,4.39-0.05,8.76-0.14,13.13c-1.71,80.76-19.16,157.64-49.42,227.69
			c-84.39,53.02-172.63,101.79-246.79,167.72c-36.28,32.25-69.3,68.7-110.39,94.66c-42.87,27.09-92.59,41.48-142.3,51.96
			c-82.03,17.28-166.14,24.78-249.96,22.28c-1.4-0.03-2.8-0.07-4.2-0.12c-32.41-1.09-65.57-3.87-95.03-17.32
			c-40.83-18.65-69.74-55.38-96.83-91.05c-0.42-0.56-0.85-1.12-1.27-1.68c-56-73.83-112-147.65-168.01-221.47
			c-3.94-8.91-7.68-17.94-11.2-27.07c-16.2-41.99-27.87-86.23-34.41-132.13c-0.29-2.02-0.57-4.04-0.84-6.06
			c-3.49-26.35-5.29-53.24-5.29-80.54c0-63.52,9.74-124.76,27.81-182.32c0.84-2.67,1.7-5.34,2.57-8
			c33.34,33.12,58.59,74.09,66.06,119.93c1.62,9.9,2.71,20.65,9.49,28.08c13.59,14.92,37.79,6.55,57.9,4.13
			c35.63-4.27,71.53,15.76,91.6,45.29c20.08,29.52,25.81,66.97,21.94,102.38c-0.97,8.85-2.07,19.05,4.17,25.44
			c4.23,4.33,10.67,5.53,16.69,6.41c45.92,6.66,92.81,7.05,138.04,17.35c45.24,10.3,90.38,32.48,114.72,71.7
			c16.07,25.88,24.61,60.12,52.51,72.64c38.5,17.27,80.5-23.14,89.71-64.08c9.21-40.93,0.38-84.52,11.45-125
			c23.16-84.69,122.06-125.99,164.07-203.2c20.03-36.82,27.59-82.38,59.95-109.2c60.85-50.42,159.17,0.97,230.44-33.45
			c3.14-1.51,6.17-3.17,9.1-4.95c29.45,69.56,46.32,145.73,47.76,225.68C1789.62,752.57,1789.65,756.29,1789.65,760.02z"/>
	</g>
	<g>
		<path class="st4" d="M842.83,723.97c0.36,0.33,0.75,0.66,1.09,0.96c-0.47-0.18-1.06-0.5-1.52-0.95
			C842.54,723.97,842.69,723.97,842.83,723.97z"/>
		<path class="st4" d="M844.09,724.99c0,0.03,0.01,0.06,0.02,0.1c-0.06-0.05-0.12-0.1-0.19-0.16
			C843.98,724.95,844.04,724.97,844.09,724.99z"/>
		<path class="st4" d="M844.08,724.77c0,0.06,0.01,0.14,0.04,0.23c-0.01,0-0.02,0-0.03-0.01
			C844.07,724.91,844.06,724.83,844.08,724.77z"/>
		<path class="st4" d="M844.11,725.09c0.02,0.02,0.04,0.04,0.06,0.05c0.06,0.18,0.17,0.41,0.31,0.66
			C844.3,725.55,844.17,725.3,844.11,725.09z"/>
		<path class="st4" d="M961.53,761.46c-0.63-0.19-1.26-0.38-1.9-0.55C960.52,761.13,961.13,761.32,961.53,761.46z"/>
		<path class="st4" d="M1132.52,817.8c0,0-0.01-0.01-0.02-0.01c0.04,0,0.07-0.01,0.1-0.02c0.01,0,0.01,0,0.02,0.01
			C1132.59,817.78,1132.55,817.79,1132.52,817.8z"/>
		<path class="st5" d="M1671.35,399.59c-15.16,13.99-29.55,28.78-42.68,44.78c-18.5,22.57-34.84,46.68-46.44,73.55
			c-6.95,16.1-12.63,32.55-18.2,49.16c-2.3,6.87-4.63,13.74-7.16,20.53c-0.56,1.51-1.13,3.01-1.71,4.51
			c-0.23,0.59-1.27,3.22-1.65,4.23c-0.01,0.03-0.02,0.06-0.04,0.1c0,0.01,0,0.01,0,0.01c-1.25,2.85-2.6,5.66-3.99,8.45
			c-2.65,5.33-5.56,10.54-8.73,15.59c-1.76,2.8-3.59,5.56-5.49,8.27c-0.77,1.08-1.57,2.14-2.32,3.22c-0.06,0.09-0.12,0.17-0.17,0.25
			c-0.01,0.01-0.02,0.01-0.02,0.02c-8.3,9.96-17.15,19.26-27.14,27.56c-0.35,0.29-0.77,0.7-1.21,1.14
			c-0.27,0.18-0.71,0.49-1.36,0.96c-2.68,1.94-5.37,3.88-8.13,5.72c-5.51,3.67-11.21,7.06-17.07,10.15
			c-2.34,1.24-4.71,2.42-7.1,3.56c-1.43,0.68-2.87,1.3-4.29,1.97c-6.01,2.34-12.08,4.47-18.29,6.22
			c-27.03,7.61-56.87,6.14-80.57,23.3c-12.82,9.27-22.56,21.48-29.65,35.6c-5.41,10.79-9.56,22.2-15.51,32.72
			c-1.3,2.3-2.8,4.44-4.17,6.68c0,0-0.01,0-0.01,0.01c-0.6,0.67-1.19,1.36-1.82,2.02c-0.88,0.92-1.87,1.75-2.75,2.67
			c-0.1,0.11-0.2,0.21-0.28,0.3c-2.79,1.66-5.5,3.32-8.4,4.79c-0.08,0.04-0.16,0.08-0.23,0.12c-0.01,0-0.02,0.01-0.03,0.01
			c-1.16,0.35-2.46,0.7-2.75,0.8c-2.88,0.9-5.79,1.66-8.73,2.3c-1.66,0.36-3.32,0.68-4.98,0.97c-0.34,0.06-0.67,0.12-1.01,0.18
			c-1.28,0.19-1.98,0.31-2.08,0.34c0.12,0,1.43-0.17,3.92-0.51c-2.65,1.28-7.3,0.79-10.24,1.02c-13.4,1.03-26.96,1.47-40.4,1.21
			c-3.15-0.07-6.31-0.18-9.46-0.38c-1.39-0.09-2.79-0.19-4.18-0.32c-0.69-0.06-1.39-0.13-2.08-0.19c-1.3-0.15-2.01-0.22-2.12-0.22
			c0.17,0.05,1.46,0.22,3.84,0.54c-2.34,0.42-5.77-0.94-8.1-1.43c-3.97-0.85-7.9-1.91-11.73-3.24c-0.27-0.09-0.54-0.2-0.82-0.31
			c-0.37-0.11-0.84-0.29-1.31-0.55c0.44,0.17,0.88,0.36,1.31,0.55c1.13,0.31,1.4-0.06-1.81-0.84c0.16,0.09,0.33,0.19,0.49,0.28
			c-0.55-0.23-1.1-0.43-1.62-0.54c0.42,0.09,0.79,0.18,1.13,0.26c-2.76-1.58-5.48-3.1-8.18-4.82c-0.31-0.2-0.57-0.36-0.8-0.51
			c-0.76-0.79-1.51-1.67-1.87-2.01c-2.75-2.61-5.34-5.38-8.04-8.05c-14.23-14.06-30.29-22.16-50.24-24.11
			c-16.03-1.57-32.44,2.38-47.97,5.98c-7.72,1.79-15.46,3.46-23.28,4.81c-2.08,0.36-4.17,0.68-6.26,1.03
			c-0.5,0.09-0.92,0.16-1.27,0.22c-0.06,0.02-0.12,0.03-0.18,0.03c-0.1,0.01-0.2,0.03-0.29,0.04c-3.9,0.5-7.82,0.87-11.74,1.19
			c-7.97,0.65-15.98,0.96-23.98,0.85c-3.36-0.05-6.72-0.17-10.07-0.37c-2.51-0.14-5.02-0.34-7.53-0.57
			c-0.66-0.06-2.36-0.19-3.61-0.28h-0.06c-6.41-0.67-12.97-2.45-19.13-4.1c-5.33-1.43-10.53-3.85-15.81-5.49
			c1.22,0.48-0.32,0.4-1.73-0.28c-0.36-0.18-0.73-0.35-1.1-0.52c-0.15-0.04-0.29-0.08-0.44-0.11c0.14,0.03,0.27,0.06,0.4,0.09
			c-1.14-0.53-2.29-1.05-3.42-1.61c-2.71-1.33-5.39-2.73-8.02-4.21c-2.91-1.65-5.78-3.39-8.57-5.23c-1.12-0.73-2.23-1.48-3.32-2.25
			c-1.1-0.76-2.18-1.54-3.26-2.33c0.95,0.74,1.9,1.48,2.85,2.23c-5.02-2.29-10.27-8.8-14-12.72c-2.06-2.17-3.99-4.43-5.92-6.71
			c-0.82-0.97-1.23-1.43-1.37-1.56c-0.68-1.16-1.28-2.33-1.62-2.85c-7.84-12.08-13.34-25.01-22.41-36.35
			c-11.55-14.45-28.68-22.48-47.17-22.57c-7.03-0.04-13.99,1.34-21.03,1.33c-1.71,0-3.41-0.07-5.11-0.19
			c-0.84-0.06-1.44-0.09-1.85-0.11c-0.01,0-0.02,0-0.02,0c-2.63-0.61-6.31-1.65-7.03-1.85c-2.68-0.78-7.44-1.53-9.5-3.32
			c0.24,0.21,3.22,1.57,3.43,1.57c-0.06-0.09-0.59-0.37-1.89-1.04c-1.22-0.62-2.45-1.19-3.66-1.82c-6.17-3.2-12.05-6.93-17.72-10.94
			c-1.32-0.94-2.6-1.93-3.92-2.87c-0.01,0-0.01-0.01-0.01-0.01c-0.07-0.05-0.15-0.12-0.23-0.18c-2.5-2.04-4.99-4.07-7.44-6.17
			c-5.44-4.65-10.73-9.48-15.98-14.35c-10.68-9.94-21.26-19.96-32.19-29.62c-23.25-20.52-47.53-39.88-72.52-58.23
			c-7.66-5.63-15.41-11.14-23.23-16.54c-8.04,18.7-15.16,37.88-21.32,57.5c5.5,3.88,10.95,7.82,16.36,11.81
			c3.1,2.29,6.18,4.59,9.25,6.91c1.23,0.93,2.45,1.87,3.67,2.8c0.21,0.16,0.41,0.31,0.58,0.43c0.04,0.04,0.09,0.07,0.14,0.11
			c0.06,0.05,0.12,0.09,0.17,0.13c0,0.01,0.01,0.01,0.02,0.02c0.12,0.09,0.24,0.19,0.38,0.3c6.04,4.76,12.08,9.54,18.03,14.42
			c22.46,18.41,43.4,38.34,64.87,57.85c22.67,20.6,47.8,40.59,77.85,48.91c8.03,2.22,16.47,3.42,24.77,3.89
			c7.66,0.44,15.11-0.9,22.73-1.16c0.13-0.01,1.14-0.1,2.2-0.14c-0.08-0.07-0.16-0.15-0.22-0.24c0.18,0.03,0.35,0.07,0.53,0.12
			c0.04,0.04,0.08,0.07,0.12,0.11c0.09-0.01,0.18-0.01,0.27-0.01c0.01-0.01,0.02-0.01,0.03,0c0.01,0,0.02,0,0.03,0.01
			c0.1,0.05,0.21,0.11,0.32,0.17c1.63,0.87,1.39,1.1,0.64,0.86c0.01,0.04,0.03,0.09,0.05,0.14c0.28,0.25,0.51,0.45,0.63,0.58
			c2.89,3.18,0.73,1.6-0.28,0.15c1.11,2.03,4.03,5.81,4.55,6.73c7.49,13.15,14.32,25.56,24,37.37c9.2,11.22,20.52,20.55,32.38,28.84
			c25.84,18.05,56.38,27.36,87.36,31.25c34.44,4.33,69.58,0.19,103.28-7.42c6.74-1.52,13.45-3.21,20.24-4.46
			c0.21-0.04,2.42-0.34,3.67-0.53h0.03c0.91-0.08,1.74-0.15,1.86-0.15c2.21-0.13,5.03,0.37,7.58,0.46
			c-0.09-0.18,0.72-0.39,2.28-0.06c-0.71,0.09-1.48,0.1-2.28,0.06c0.08,0.15,0.85,0.28,2.41-0.03c-0.04-0.01-0.08-0.02-0.12-0.03
			c0.25-0.02,0.5-0.06,0.74-0.11c-0.04-0.02-0.09-0.03-0.13-0.05c0.05-0.01,0.13,0,0.23,0.03c0.1-0.02,0.19-0.04,0.28-0.06
			c-0.09,0.02-0.18,0.04-0.26,0.07c0.22,0.06,0.53,0.21,0.87,0.4c-0.29-0.11-0.61-0.24-0.97-0.38c-0.23,0.05-0.44,0.1-0.64,0.13
			c0.16,0.04,0.33,0.08,0.5,0.13c0.34,0.1,0.69,0.2,1.03,0.29c0.32,0.12,0.61,0.22,0.86,0.3c0.01,0,0.01,0,0.01,0
			c0.86,0.54,1.69,1.12,1.8,1.19c0.04,0.02,0.08,0.04,0.12,0.07c4.75,4.66,9.46,9.46,14.37,13.94
			c24.85,22.64,57.27,29.39,90.01,29.78c27.41,0.33,57.98,0.14,83.76-10.01c17.91-7.05,32.15-17.64,43.54-33.22
			c6.96-9.52,11.59-20.29,16.37-30.99c2.26-5.06,4.55-10.12,7.22-14.98c1.2-2.21,2.52-4.32,3.86-6.43c1.21-0.99,2.69-3.37,3.57-4.24
			c0.19-0.19,1.22-1.1,2.08-1.88c0.03-0.01,0.05-0.03,0.08-0.04c1.52-0.82,2.96-1.77,4.5-2.56c0.3-0.16,0.61-0.31,0.92-0.47
			c1.05-0.49,1.67-0.77,1.86-0.87c-0.26,0.11-1.35,0.58-3.27,1.44c0.78-1.47,7.43-2.36,8.99-2.75c3.77-0.95,7.59-1.69,11.43-2.35
			c12.92-2.21,25.84-3.76,38.49-7.34c14.52-4.09,28.74-9.93,42.15-16.83c24.12-12.41,46.51-29.9,64.26-50.42
			c20.84-24.09,34.8-50.9,45.54-80.79c5.45-15.17,10.1-30.61,15.77-45.71c0.57-1.5,1.15-3.01,1.73-4.51
			c0.01-0.03,0.71-1.73,1.23-3.02c0.04-0.09,0.07-0.17,0.1-0.24c0.48-1.08,1.05-2.39,1.09-2.47c0.58-1.3,1.19-2.59,1.8-3.87
			c3.03-6.4,6.35-12.66,9.91-18.78c3.36-5.79,6.95-11.45,10.72-16.99c1.78-2.62,3.61-5.22,5.48-7.78c1.03-1.43,2.11-2.83,3.15-4.25
			c0.01-0.02,0.03-0.03,0.04-0.05c0.37-0.49,0.76-0.98,1.15-1.46c8.43-10.55,17.48-20.59,26.94-30.21c3.2-3.25,6.44-6.45,9.72-9.61
			C1694.45,432.59,1683.29,415.78,1671.35,399.59z M816.13,665.88c0.66,0.05,1.2,0.09,1.21,0.05
			C817.3,666.04,816.84,666.01,816.13,665.88z M842.15,723.71c-0.27-0.32-0.46-0.69-0.49-1.1c0.01,0.13,0.13,0.31,0.33,0.53
			c-0.03,0.04,0.04,0.13,0.27,0.29c0.11,0.12,0.24,0.23,0.37,0.35C842.47,723.76,842.31,723.74,842.15,723.71z M913.98,726.61
			c0.59,0.76,2.04,2.54,2.17,2.58C915.53,729,914.72,727.85,913.98,726.61z M1193.58,792.88c0.71,0.48,1.38,0.92,1.41,0.92
			C1194.65,793.79,1194.14,793.4,1193.58,792.88z M1305.16,797.62c0.79-0.38,1.52-0.72,1.52-0.68
			C1306.67,797.09,1305.99,797.35,1305.16,797.62z M1399.07,762.95c0.05-0.04,0.42-0.25,1.31-0.73
			C1399.74,762.61,1399.17,762.92,1399.07,762.95z M1401.11,761.77c0.62-0.56,1.12-1.02,1.12-1.05
			C1402.32,760.9,1401.78,761.33,1401.11,761.77z M1501.84,662.91c0.34-0.19,1.33-0.92,2.06-1.48
			C1503.21,662.08,1502.49,662.68,1501.84,662.91z"/>
	</g>
	<path class="st6" d="M1562.38,285.97c-3.58,53.69-48.27,96.12-102.86,96.12c-56.94,0-103.1-46.16-103.1-103.1
		c0-35.75,18.2-67.25,45.83-85.73c11.49,4.47,22.81,9.29,33.95,14.43C1481.55,228.64,1523.9,255,1562.38,285.97z"/>
	<path class="st7" d="M1786.93,747.58c-2.09,98.84-27.77,191.87-71.63,273.7c-62.55,88.37-131.39,172.2-191.46,214.05
		c-0.63,0.44-1.25,0.87-1.88,1.3c-2.38,1.63-4.78,3.24-7.19,4.84l-1.14,0.75c-2.31,1.53-4.63,3.03-6.96,4.53
		c-0.43,0.28-0.86,0.55-1.3,0.83c-2.37,1.51-4.76,3.01-7.16,4.49c-0.24,0.15-0.48,0.3-0.72,0.45c-2.39,1.47-4.78,2.92-7.19,4.36
		c-0.21,0.13-0.43,0.25-0.64,0.38c-2.45,1.46-4.91,2.9-7.38,4.32c-0.41,0.24-0.82,0.48-1.23,0.71c-2.44,1.4-4.9,2.79-7.36,4.15
		c-0.35,0.2-0.71,0.39-1.07,0.59c-5.15,2.85-10.35,5.62-15.6,8.33c-0.33,0.16-0.65,0.33-0.98,0.5c-2.53,1.3-5.08,2.58-7.64,3.85
		c-0.4,0.19-0.79,0.39-1.19,0.59c-2.6,1.27-5.2,2.54-7.81,3.78c-0.21,0.09-0.42,0.19-0.63,0.29c-2.66,1.26-5.33,2.5-8.01,3.72
		c-0.12,0.06-0.24,0.11-0.37,0.17c-2.67,1.22-5.36,2.41-8.06,3.59c-0.37,0.16-0.74,0.32-1.11,0.48c-2.65,1.16-5.31,2.29-7.98,3.41
		c-0.33,0.13-0.65,0.27-0.98,0.4c-3.82,1.59-7.65,3.14-11.51,4.64c-1.77,0.7-3.54,1.38-5.32,2.06c-0.26,0.1-0.52,0.2-0.78,0.3
		c-2.75,1.05-5.51,2.07-8.28,3.07c-0.35,0.13-0.71,0.26-1.07,0.39c-2.8,1.01-5.6,2-8.42,2.97c-0.16,0.06-0.32,0.11-0.48,0.16
		c-2.94,1.01-5.89,2-8.86,2.97c0,0-0.01,0-0.02,0c-2.91,0.95-5.82,1.87-8.75,2.78c-0.3,0.09-0.6,0.18-0.9,0.28
		c-2.87,0.88-5.74,1.74-8.62,2.58c-0.26,0.07-0.52,0.15-0.78,0.22c-6,1.74-12.04,3.39-18.11,4.94c-0.14,0.04-0.27,0.07-0.41,0.11
		c-2.99,0.76-5.99,1.5-9,2.22l-0.75,0.18c-3.04,0.72-6.09,1.43-9.15,2.1c-0.04,0.01-0.07,0.02-0.11,0.03
		c-6.3,1.39-12.64,2.68-19.01,3.88c-0.13,0.02-0.26,0.05-0.39,0.07c-3.15,0.59-6.3,1.16-9.47,1.7c-0.08,0.01-0.16,0.03-0.25,0.04
		c-33.41,5.69-67.75,8.66-102.79,8.66c-78.25,0-153.05-14.78-221.75-41.71c-202.17-79.22-351.59-263.57-381-485.79
		c65.18,23.88,229.08,87.99,229.58,128.99c0,0,255.57,82.2,320.46,177.16c0,0,86.4,7.13,164.6,28.57
		c23.18-44.49,57.99-91.61,99.33-84.96C1390.25,1064.75,1629.77,838.99,1786.93,747.58z"/>
	
		<rect x="1234.09" y="1128.91" transform="matrix(-1 -1.224647e-16 1.224647e-16 -1 2474.2839 2443.5784)" class="st8" width="6.11" height="185.75"/>
	<circle class="st8" cx="1234.09" cy="1116.58" r="15.73"/>
	
		<rect x="1232.09" y="1128.91" transform="matrix(-1 -1.224647e-16 1.224647e-16 -1 2470.2839 2443.5784)" class="st9" width="6.11" height="185.75"/>
	<path class="st10" d="M1400.75,1300.78c-1.77,0.7-3.54,1.38-5.32,2.06c-0.26,0.1-0.52,0.2-0.78,0.3c-2.75,1.05-5.51,2.07-8.28,3.07
		c-0.35,0.13-0.71,0.26-1.07,0.39c-2.8,1.01-5.6,2-8.42,2.97c-0.16,0.06-0.32,0.11-0.48,0.16c-2.94,1.01-5.89,2-8.86,2.97
		c0,0-0.01,0-0.02,0c-2.91,0.95-5.82,1.87-8.75,2.78c-0.3,0.09-0.6,0.18-0.9,0.28c-2.87,0.88-5.74,1.74-8.62,2.58
		c-0.26,0.07-0.52,0.15-0.78,0.22c-6,1.74-12.04,3.39-18.11,4.94c-0.14,0.04-0.27,0.07-0.41,0.11c-2.99,0.76-5.99,1.5-9,2.22
		l-0.75,0.18c-3.04,0.72-6.09,1.43-9.15,2.1c-0.04,0.01-0.07,0.02-0.11,0.03c-6.3,1.39-12.64,2.68-19.01,3.88
		c-0.13,0.02-0.26,0.05-0.39,0.07c-3.15,0.59-6.3,1.16-9.47,1.7c-0.08,0.01-0.16,0.03-0.25,0.04c-4.98,0.85-9.98,1.64-15,2.36
		c-19.21,2.78-38.72,4.67-58.47,5.6c-9.71,0.47-19.49,0.7-29.32,0.7c-11.5,0-22.93-0.32-34.27-0.95
		c-22.75-1.26-45.16-3.77-67.16-7.48c-41.7-7-81.96-18.24-120.32-33.28H1400.75z"/>
	<g>
		<g>
			<path class="st8" d="M1434.84,897.83c0,0,38.94,82.02,69.89,103.9c3.38,2.39,6.33,5.32,8.57,8.8
				c7.25,11.31,22.25,37.37,28.77,68.35v60.53C1542.07,1139.41,1412.15,987.84,1434.84,897.83z"/>
			<path class="st8" d="M1515.57,585.92c0,0-48.49,141.72,14.19,273.83l34.95-11.58c0,0-15.43-110.95-31.04-139.95
				C1533.66,708.22,1503,609.87,1515.57,585.92z"/>
			<path class="st8" d="M1515.57,707.57c0,0,12.7,125.32,33.57,145.75L1515.57,707.57z"/>
			<path class="st8" d="M1542.33,1029.71c0,0-60.2-133.63,0-184.07c0,0,76.18-100.86,118.63-75.65c0,0-111.58,156.55-105.96,253.39
				L1542.33,1029.71z"/>
			<path class="st8" d="M1830.74,943.98c0,0-117.14,74.64-143.29,100.6l-0.03,0.01l-5.89,4.55c-64.94,43.8-117.9,157.9-118.9,160.04
				c-0.01,0.01-0.01,0.03-0.01,0.03l1.53-64.03c0.03-0.04,0.04-0.09,0.09-0.13c0.34-0.52,1.75-2.67,4.16-6.14
				C1590.47,1107.1,1696.4,964.13,1830.74,943.98z"/>
			<path class="st8" d="M1549.14,1288.31c-1.11-0.75-2.19-1.84-3.27-3.23c-2.15-2.79-4.23-6.79-6.23-11.8
				c-5.97-14.88-11.3-38.58-15.91-65.26c-3.02-17.49-5.72-36.25-8.09-54.65c-1.42-10.99-2.71-21.85-3.88-32.22v-0.01
				c-0.96-8.56-1.84-16.78-2.62-24.48c-2.59-25.29-4.21-44.87-4.75-51.7c-0.12-1.49,1.11-2.74,2.6-2.62
				c19.05,1.54,28.77,33.62,32.77,51.87c0.7,3.17,1.22,5.92,1.59,8.02c0.26,1.47,0.45,2.63,0.56,3.38c0.1,0.66,0.15,1.02,0.15,1.02
				l6.48,166.35L1549.14,1288.31z"/>
			<path class="st8" d="M1788.09,965.37l-100.64,76.8l-0.03,0.01l-5.89,4.5c-54.08,36.07-99.86,120.37-114.23,148.78
				c-2.89,5.71-4.51,9.16-4.67,9.52c-0.01,0.01-0.01,0.03-0.01,0.03l-4.61,86.68l-7.58,142.5h-16.77l4.67-129.5l2.94-81.6
				l0.63-118.79l0.9-167.68c5.95-50.07,64.27-110.2,66.99-112.98c-85.25,96.56-45.64,318.04-45.64,318.04
				c0.03-0.05,0.04-0.09,0.09-0.14c1.1-1.89,2.5-3.92,4.15-6.06C1606.87,1085.28,1782.37,969.13,1788.09,965.37z"/>
			<path class="st8" d="M1555.78,1062.72c0,0,76.58-136.38,90.87-214.55c0,0,30.13,147.43-97.51,272.98L1555.78,1062.72z"/>
			<g>
				<path class="st8" d="M1673.13,1196.15"/>
			</g>
			<g>
				<path class="st8" d="M1800.46,733.06"/>
			</g>
		</g>
		<path class="st8" d="M1541.91,1105.61c-0.31,10.21-1.24,19.3-1.61,31.71c-0.84,27.82-1.65,55.39-1.65,56.88
			c0,1.81-8.27,8.64-14.92,13.82c-3.02-17.49-5.72-36.25-8.09-54.65c-1.42-10.99-2.71-21.85-3.88-32.22l14.9,60.53l7.73-51.6
			l5.37-35.87C1540.46,1097.38,1541.54,1103.51,1541.91,1105.61z"/>
		<path class="st8" d="M1543.89,1107.41l-1.8,68.64l-0.23,64.43l-2.64,44.58l-5.56-15.38c0,0-3.67-17.79-8.47-39.7
			c-5.49-25.12-12.47-55.67-17.08-71.05c-1.69-5.62-3.06-9.22-3.93-9.78l-6.51-41.93l17.97,46.15l11.02,28.31l14.88-78.34
			L1543.89,1107.41z"/>
		<g>
			<path class="st8" d="M1625.03,1182.96"/>
		</g>
	</g>
	<g>
		<g>
			<path class="st11" d="M1428.84,897.83c0,0,38.94,82.02,69.89,103.9c3.38,2.39,6.33,5.32,8.57,8.8
				c7.25,11.31,22.25,37.37,28.77,68.35v60.53C1536.07,1139.41,1406.15,987.84,1428.84,897.83z"/>
			<path class="st11" d="M1509.57,585.92c0,0-48.49,141.72,14.19,273.83l34.95-11.58c0,0-15.43-110.95-31.04-139.95
				C1527.66,708.22,1497,609.87,1509.57,585.92z"/>
			<path class="st12" d="M1509.57,707.57c0,0,12.7,125.32,33.57,145.75L1509.57,707.57z"/>
			<path class="st12" d="M1536.33,1029.71c0,0-60.2-133.63,0-184.07c0,0,76.18-100.86,118.63-75.65c0,0-111.58,156.55-105.96,253.39
				L1536.33,1029.71z"/>
			<path class="st12" d="M1824.74,943.98c0,0-117.14,74.64-143.29,100.6l-0.03,0.01l-5.89,4.55
				c-64.94,43.8-117.9,157.9-118.9,160.04c-0.01,0.01-0.01,0.03-0.01,0.03l1.53-64.03c0.03-0.04,0.04-0.09,0.09-0.13
				c0.34-0.52,1.75-2.67,4.16-6.14C1584.47,1107.1,1690.4,964.13,1824.74,943.98z"/>
			<path class="st13" d="M1543.14,1288.31c-1.11-0.75-2.19-1.84-3.27-3.23c-2.15-2.79-4.23-6.79-6.23-11.8
				c-5.97-14.88-11.3-38.58-15.91-65.26c-3.02-17.49-5.72-36.25-8.09-54.65c-1.42-10.99-2.71-21.85-3.88-32.22v-0.01
				c-0.96-8.56-1.84-16.78-2.62-24.48c-2.59-25.29-4.21-44.87-4.75-51.7c-0.12-1.49,1.11-2.74,2.6-2.62
				c19.05,1.54,28.77,33.62,32.77,51.87c0.7,3.17,1.22,5.92,1.59,8.02c0.26,1.47,0.45,2.63,0.56,3.38c0.1,0.66,0.15,1.02,0.15,1.02
				l6.48,166.35L1543.14,1288.31z"/>
			<path class="st11" d="M1782.09,965.37l-100.64,76.8l-0.03,0.01l-5.89,4.5c-54.08,36.07-99.86,120.37-114.23,148.78
				c-2.89,5.71-4.51,9.16-4.67,9.52c-0.01,0.01-0.01,0.03-0.01,0.03l-4.61,86.68l-7.58,142.5h-16.77l4.67-129.5l2.94-81.6
				l0.63-118.79l0.9-167.68c5.95-50.07,64.27-110.2,66.99-112.98c-85.25,96.56-45.64,318.04-45.64,318.04
				c0.03-0.05,0.04-0.09,0.09-0.14c1.1-1.89,2.5-3.92,4.15-6.06C1600.87,1085.28,1776.37,969.13,1782.09,965.37z"/>
			<path class="st11" d="M1549.78,1062.72c0,0,76.58-136.38,90.87-214.55c0,0,30.13,147.43-97.51,272.98L1549.78,1062.72z"/>
			<g>
				<g>
					<path class="st14" d="M1667.13,1196.87c0.93,0,0.93-1.45,0-1.45C1666.2,1195.43,1666.2,1196.87,1667.13,1196.87
						L1667.13,1196.87z"/>
				</g>
			</g>
			<g>
				<g>
					<path class="st15" d="M1794.46,733.78c0.93,0,0.93-1.45,0-1.45C1793.53,732.33,1793.53,733.78,1794.46,733.78L1794.46,733.78z"
						/>
				</g>
			</g>
		</g>
		<path class="st6" d="M1535.91,1105.61c-0.31,10.21-1.24,19.3-1.61,31.71c-0.84,27.82-1.65,55.39-1.65,56.88
			c0,1.81-8.27,8.64-14.92,13.82c-3.02-17.49-5.72-36.25-8.09-54.65c-1.42-10.99-2.71-21.85-3.88-32.22l14.9,60.53l7.73-51.6
			l5.37-35.87C1534.46,1097.38,1535.54,1103.51,1535.91,1105.61z"/>
		<path class="st11" d="M1537.89,1107.41l-1.8,68.64l-0.23,64.43l-2.64,44.58l-5.56-15.38c0,0-3.67-17.79-8.47-39.7
			c-5.49-25.12-12.47-55.67-17.08-71.05c-1.69-5.62-3.06-9.22-3.93-9.78l-6.51-41.93l17.97,46.15l11.02,28.31l14.88-78.34
			L1537.89,1107.41z"/>
		<g>
			<g>
				<path class="st6" d="M1619.03,1183.45c0.64,0,0.64-0.99,0-0.99C1618.39,1182.46,1618.39,1183.45,1619.03,1183.45
					L1619.03,1183.45z"/>
			</g>
		</g>
	</g>
	<path class="st16" d="M1823.38,1440.92H796.39l37.06-6.26l34.47-5.82l87.56-14.78l30.89-5.21l12.37-2.09l50.98,2.11l494.1,20.47
		l238.83,9.89l13.95,0.58h0.11c0.03,0,0.04,0,0.04,0L1823.38,1440.92z"/>
	<path class="st16" d="M1796.6,1439.81l-658.47-5.62l-49.76,0.08l-17.13-8c-0.03-0.01-0.06-0.02-0.1-0.04l-29.23-13.64l-0.14-0.07
		c0,0,0.05-0.02,0.12-0.05c0.16-0.07,0.47-0.2,0.9-0.39c1.36-0.6,3.92-1.74,6.56-3.03c0.06-0.03,0.11-0.06,0.17-0.08
		c0.07-0.03,0.13-0.07,0.2-0.1l-50.98-2.11l-12.37,2.09c6.63,2.83,15.72,6.8,22.44,10.03l0.01,0.01c2.14,1.03,4.03,1.99,5.53,2.81
		s2.6,1.51,3.15,2.01c0.8,0.72,1.78,1.46,3.08,2.22c3.13,1.83,8.62,5.04,14.64,8.42l-27.58,0.04l-2.72-1.06l5.58-4.46l0.77-0.62
		l0.65-0.52c0,0-1.57-0.24-4.42-0.64c-5.41-0.78-15.45-2.16-28.04-3.68l-23.98-9.35l-87.56,14.78c0.44,0.16,0.89,0.33,1.35,0.49
		c4.73,1.67,10.52,3.45,17.52,5.25l-53.34,0.08l-37.06,6.26h120.78h107.22h22.84h55.39h684.3c5.99-0.67,9.38-1.06,9.79-1.11H1796.6z
		"/>
	<polygon class="st17" points="947.04,1280.32 945.68,1279.63 945.11,1281.09 	"/>
	<g>
		<path class="st8" d="M1181.61,741.32l-12.16,38.59l-47.66,15.21l-13.13-25.73v-43.27l-4.57-110.39l37.76-12.27
			c0,0,18.76,102.78,19.86,121.49L1181.61,741.32z"/>
		<path class="st8" d="M1036.88,1146.81l-6.05,76.05l-0.27,3.39l-0.3,3.67l-0.97,12.19l-0.77,9.71l-0.44,5.47l-0.49,6.19
			l-0.87,10.97l-0.41,5.17l-4.83,60.62l-24.12,4.8l-4.89,0.97l-15.83-63.21l-1.78-7.09l-0.26-1.04l0.01-0.9v-0.12l0.05-8.23
			l0.02-3.74l0.04-5.9l0.02-2.49l0.05-8.17l0.08-13.69l0.02-3.05l0.03-5.61l0.05-8.72v-0.01l0.41-65.89v-0.01l0.63-103l0.63-103.34
			v-0.01l0.13-19.69l0.03-5.13v-0.01l0.41-68.15v-0.01l0.06-9.21l9.78-6.67l34.69-23.66l8.29-5.65l0.2,10.03l0.04,1.82l1.78,89.42
			l0.02,0.95c-0.01,0.01,0,0.02,0,0.03l0.14,6.96c0,0.01,0,0.02,0,0.02l0.22,11.22l0.81,40.72l1,49.86v0.01l0.1,4.78v0.01
			l1.03,51.46v0.01L1036.88,1146.81z"/>
		<path class="st8" d="M1030.83,1222.86l-0.27,3.39l-0.3,3.67l-0.97,12.19c-21.26-8.12-54.48,2.99-54.48,2.99s-0.01,0.01-0.02,0.02
			l0.08-13.69l0.02-3.05l27.86-2.75L1030.83,1222.86z"/>
		<path class="st8" d="M967.68,843.5l-12.57,381l-0.17,5.16l-3.58,108.65l-43.91,2.61l-14.31-105.97l-4.86-35.96l-25.29-187.28
			c-32.72-167.05-4.37-188.47-4.37-188.47C879.34,851.59,967.68,843.5,967.68,843.5z"/>
		<path class="st8" d="M959.48,1226.17c-1.22,1.33-2.75,2.49-4.54,3.49c-17.9,10.06-60.81,4.33-60.81,4.33s-0.39,0.37-0.99,0.96
			l-4.86-35.96l66.83,25.51L959.48,1226.17z"/>
		<path class="st8" d="M943.56,1436.9c0,0-37.26,7.01-39.86-5.13c-0.19-0.84-0.18-1.79,0-2.84v-0.1c0.01,0,0.01,0,0.02,0
			c0.1-0.57,0.25-1.16,0.47-1.8c0,0,7.94-36.7,1.82-62.11c-0.26-1.11-0.56-2.2-0.88-3.26c-1.3-4.29-2.54-8.58-3.38-12.94
			c-3.96-20.5-12.99-73.76-3.25-74.05c0,0,5.57,4.71,18.21,6.55c0.68,0.1,1.38,0.19,2.11,0.27h0.01c7.28,0.82,16.65,0.68,28.37-1.64
			c1.98-0.38,4.02-0.83,6.13-1.36c0.24-0.05,0.47-0.11,0.71-0.17v0.36l-0.38,33.62l-0.38,33.16l-0.7,62.45
			C952.58,1407.91,964.89,1435.05,943.56,1436.9z"/>
		<path class="st8" d="M943.56,1436.9c0,0-37.26,7.01-39.86-5.13v-2.94c0.01,0,0.01,0,0.02,0c49.25,7.74,45.41-17.54,45.41-17.54
			l2.04-64.63l1.13-35.56l1.57-30.71l0.17-2.07v0.36l-0.38,33.62l-0.38,33.16l-0.7,62.45
			C952.58,1407.91,964.89,1435.05,943.56,1436.9z"/>
		<path class="st8" d="M1081.19,1418.07c-5.74,4.89-21.9,11.9-61.15-6.96c-0.16-0.07-0.32-0.15-0.48-0.23
			c-0.03,0.01-0.06,0.01-0.09,0.02c-0.09,0.01-0.18,0.03-0.27,0.04c-0.9,0.15-3.4,0.48-6.7,0.3c-4.23-0.24-9.77-1.34-14.92-4.79
			c0,0-0.04-1.06-0.12-2.91c-0.29-6.84-1.16-24.44-2.91-39.14c-0.16-1.3-0.32-2.58-0.49-3.82c0,0,0-0.01,0-0.02
			c-0.01-0.01-0.01-0.01-0.01-0.01c-0.93-6.87-2.08-12.77-3.49-16.09c-1.03-2.42-1.91-4.88-2.54-7.43
			c-2.95-11.95-10.01-41.26-12.76-58.67c-0.15-0.92-0.28-1.8-0.4-2.65c-0.09-0.67-0.18-1.32-0.25-1.94v-0.12
			c-0.53-4.1-0.66-7.1-0.19-8.33c0,0,0.08,0.04,0.24,0.1c0.39,0.16,1.27,0.5,2.6,0.9c6.54,2.01,24.02,5.68,48.32-2.17
			c0.66-0.21,1.33-0.44,2.01-0.67c0.59-0.2,1.19-0.41,1.79-0.63l8.43,73.03c0,0.04,0.01,0.09,0.01,0.15l5.26,45.6l0.03,0.22
			c0,0,0.09,0.06,0.25,0.17c0.33,0.23,0.98,0.68,1.89,1.31c2.87,2,8.3,5.8,14.21,10.12c0.14,0.1,0.26,0.19,0.38,0.27
			c8.32,6.08,17.47,13.09,21.72,17.45c0.46,0.48,0.8,1.03,1.01,1.62c0,0,0,0,0,0.01
			C1083.25,1414.61,1082.75,1416.74,1081.19,1418.07z"/>
		<path class="st8" d="M1012.5,1411.24c-4.23-0.24-9.77-1.34-14.92-4.79c0,0-0.04-1.06-0.12-2.91c-0.29-6.84-1.16-24.44-2.91-39.14
			c-0.16-1.3-0.32-2.58-0.49-3.82l0.94,3.56l10.74,40.62L1012.5,1411.24z"/>
		<path class="st8" d="M1108.67,770.81c0,0-176.21,123.87-250.04,52.43c0,0,0.61-8.07,1.85-19.63v-0.01
			c2.92-27.37,9.32-74.31,19.26-80.23l6.02-41.58l7.09-48.91l227.79-13.4l1.15,98.69C1121.79,718.17,1139.2,756.62,1108.67,770.81z"
			/>
		<ellipse class="st8" cx="1038.02" cy="629.24" rx="35.96" ry="44.29"/>
		<path class="st8" d="M1078.48,624.98l-9.65,44.76l-40.33,12.05l-16.13-13.87c0,0,4.27,39.77,5.69,38.83
			c1.42-0.95,64.53-14.38,64.53-14.38L1078.48,624.98z"/>
		<path class="st8" d="M1106.93,690.3c0,0,6.22-50.97,13.98-53.4c0,0-11.81,5.7-16.81,49.39v12.66L1106.93,690.3z"/>
		<path class="st8" d="M907.45,704.57L885.28,811.9l-12.3-36.65l-12.5,28.35c2.92-27.37,9.32-74.31,19.26-80.23l6.02-41.58
			L907.45,704.57z"/>
		<path class="st8" d="M1108.66,763.36c-0.25,2.8-0.5,5.47-0.74,7.96c-1.1,11.08-2.1,18.66-2.1,18.66l-7.38,22.32l-21.2,64.07
			l0.67,39.24l0.89,52.37l4.07,239.33c-9.65,8.08-20.69,14.24-32.51,18.18c-6.49,2.17-13.23,3.67-20.1,4.43
			c-0.47,0.06-0.94,0.11-1.42,0.16c-17.95,1.77-35.99,2.22-53.97,1.35c-1.23-0.05-2.46-0.12-3.69-0.19
			c-1.13-0.06-2.25-0.13-3.38-0.21c-4.29-0.29-8.58-0.65-12.87-1.09c-0.14-0.01-0.28-0.03-0.42-0.05
			c-4.81-0.49-9.61-1.08-14.39-1.76c-10.58-1.52-21.11-3.49-31.55-5.93l-18.25-8.14l-27.34-12.18l-2.33-202.43l-2.03-176.21v-0.01
			c0.94,0.07,1.87,0.13,2.79,0.17c8.72,0.37,17.1-0.71,25.1-2.93c4.13-1.15,8.17-2.6,12.1-4.33c2.56-1.12,5.08-2.35,7.56-3.69
			c1.39-0.74,2.76-1.52,4.12-2.33c21.92-13.08,40.26-34.02,54.49-54.72c22.34-32.48,34.55-64.36,34.55-64.36l-23.19-37.89
			l-14.64-23.92l0.19-0.4l8.08-16.71l11.84,15.54l18.07,23.71l12.69,16.64l14.63,19.2l32.39-4.87l19.99-3.01l-1.64-44.99l-0.19-5.12
			l-0.26-7.19l-1.22-33.48l25.4,17.15l0.48,14.88l0.19,5.7l1.95,60c1.1,0.85,2.04,2.22,2.84,4.01c0.09,0.21,0.18,0.43,0.27,0.65
			c1.26,3.14,2.13,7.43,2.7,12.47C1111.75,719.95,1110.32,744.59,1108.66,763.36z"/>
		<path class="st8" d="M887.7,939.67c0,0,140.15-23.28,149.18-38.81c0,0,1.32,129.73-34.83,136.51
			C1002.06,1037.37,880.54,1092.5,887.7,939.67z"/>
		<path class="st8" d="M1050.36,1225.49c-6.49,2.17-13.23,3.67-20.1,4.43c-0.47,0.06-0.94,0.11-1.42,0.16
			c-17.95,1.77-35.99,2.22-53.97,1.35c-1.23-0.05-2.46-0.12-3.69-0.19c-1.13-0.06-2.25-0.13-3.38-0.21
			c-4.29-0.29-8.58-0.65-12.87-1.09c-0.14-0.01-0.28-0.03-0.42-0.05c-4.81-0.49-9.61-1.08-14.39-1.76
			c-10.58-1.52-21.11-3.49-31.55-5.93l-18.25-8.14l-27.34-12.18l-2.33-202.43l-2.03-176.21l5.94,200.06l4.61,155.56
			c0,0,5.78,6.07,18.27,13.88c12.36,7.71,31.29,17.12,57.69,24c3.27,0.86,6.66,1.67,10.16,2.44c4.23,0.93,8.64,1.79,13.22,2.57
			c0.99,0.17,1.99,0.33,3,0.5c1.12,0.17,2.26,0.35,3.41,0.52c8.68,1.28,17.95,2.26,27.83,2.86c8.78,0.54,18.05,0.76,27.81,0.62
			C1036.95,1226.16,1043.55,1225.91,1050.36,1225.49z"/>
		<path class="st8" d="M955.25,632.35c0,0,25.06,92.81,9.37,120.04l-31.39-76.73v-31.72L955.25,632.35z"/>
		<path class="st8" d="M1123.85,861.21l-4.18,9.9l-8.89,21.09l-1.78,4.21l-30.2,71.57l-5.47,12.96l-11.5,27.24l-26.46,62.72v0.01
			l-60.4,143.13v0.01l-3.46,8.2l-1.26,2.98l-2.45,5.8l-14,33.18l-6.6,15.64l-8.21,19.47l-3.66,8.67l-21.53-20.18l2.91-6.59l0.5-1.15
			l20.02-45.41l2.89-6.53l3.52-8.01l1.49-3.38l11.06-25.08l1.19-2.7l18-40.81v-0.01l48.84-110.78l0.03-0.05l9.99-22.66v-0.01
			l27.37-62.07l16.3-36.96l17.02-38.61c0,0,0.01-0.01,0.02-0.04l8.66-23.44l2.63-7.11L1123.85,861.21z"/>
		<path class="st8" d="M1017.01,910.19c0,0,36.4,31.95,47.72,46.01c1.78,2.21,3.1,4.75,3.92,7.46c2.41,7.91,8.43,29,8.59,43.29
			c0.07,6.22-7.45,9.38-11.9,5.04c-4.25-4.14-9.43-10.86-14.56-21.68l-26.55,47.06l2.39-31.83c0,0-12.25-43.7-9.6-49.33
			l-37.74-32.77l2.65-26.15L1017.01,910.19z"/>
		<path class="st8" d="M1032.21,912.82c-0.42,3.92-1.49,7.34-2.12,9.09c-0.28,0.78-0.47,1.23-0.47,1.23
			c-1.74-6.34-13.96-2.72-13.96-2.72c-5.95,5.41-24.35,8.17-29.64,8.87c-0.92,0.12-1.44,0.18-1.44,0.18l-7.94,12.32v0.01l-3.72,5.77
			c-3.83,0.44-6.62-2.76-8.47-6.17c-1.96-3.59-2.88-7.4-2.88-7.4c-3.02-0.83-6.81-3.06-11.01-6.16
			c-10.6-7.85-23.74-21.24-33.21-31.46c-7.35-7.94-12.49-13.97-12.49-13.97c-0.87-1.26-1.71-2.64-2.52-4.12v-0.01
			c-5.02-9.16-8.96-22.34-12.05-36.87c-0.11-0.53-0.22-1.06-0.33-1.6c-0.25-1.19-0.49-2.38-0.72-3.59
			c-1.01-5.16-1.91-10.45-2.73-15.75c-0.44-2.86-0.85-5.72-1.24-8.57c-4.64-34.05-5.71-66.15-5.71-66.15
			c-0.89-7-1.33-14.06-1.43-21.04c-0.24-15.05,1.12-29.75,3.1-42.83v-0.01c0.44-2.86,0.9-5.65,1.38-8.35
			c4.34-24.25,10.23-41.17,10.23-41.17c0.01,0,0.01,0,0.01,0h0.01l1.51,0.44l14.14,4.05l24.71,7.09l13.02,3.73
			c1.39,0.86,2.68,2.53,3.9,4.91c7.7,15.06,12.04,58.29,14.47,99.81c0.06,1.01,0.12,2.02,0.17,3.02
			c2.07,36.43,2.68,70.98,2.85,83.32c0.04,3.08,0.05,4.78,0.05,4.78c2.68,0,5.98,2.05,9.53,5.3v0.01
			c13.81,12.64,31.47,43.55,31.47,43.55c15.89-0.82,21.65,5.49,23.22,12.6c0.06,0.3,0.12,0.59,0.17,0.89v0.01
			C1032.47,908.2,1032.44,910.59,1032.21,912.82z"/>
		<path class="st8" d="M1119.96,774.99v43.05c0,0-24.18,24.18-24.77,35.97s-10.55,25.95-0.26,23c0,0,14.42-27.72,25.03-5.31
			c0,0-5.05,19.33-9.18,20.51c0,0,25.1,2.49,28.64-1.64c0,0,9.44-38.92,5.9-46l11.37-37.35c0.67-2.2,0.88-4.52,0.63-6.81
			l-3.74-33.69L1119.96,774.99z"/>
		<polygon class="st8" points="1181.61,741.32 1169.45,780.75 1121.79,795.12 1108.67,770.81 1161.71,724.95 		"/>
		<path class="st8" d="M1029.63,923.14c-1.74-6.34-13.96-2.71-13.96-2.71c-6.98,6.34-31.09,9.05-31.09,9.05l-11.66,18.1
			c-7.86,0.91-11.35-13.57-11.35-13.57c0.38-8.49,47.11-41.64,47.11-41.64C1043.59,890.56,1029.63,923.14,1029.63,923.14z"/>
		<path class="st8" d="M1242.06,582.45c-14.93,8.36-67.52,22.93-98.38,31.08c-13.38,3.53-22.67,5.85-23.04,5.95
			c-0.01,0-0.01,0-0.01,0c-5.5,2.11-10.88,4.1-16.14,5.97c-0.79,0.28-1.57,0.56-2.35,0.83c-1.66,0.59-3.31,1.16-4.94,1.72
			c-6.23,2.14-12.29,4.12-18.18,5.94c-0.43,0.14-0.86,0.27-1.28,0.4c-0.46,0.14-0.92,0.28-1.38,0.41c-0.92,0.29-1.84,0.56-2.75,0.83
			c-0.66,0.2-1.32,0.4-1.98,0.59c-0.05,0.02-0.11,0.04-0.16,0.05c-0.24,0.07-0.48,0.14-0.72,0.21c-0.55,0.17-1.1,0.33-1.65,0.48
			h-0.01c-4.8,1.4-9.48,2.68-14.05,3.87c-9.23,2.39-17.97,4.37-26.25,6.01c-1.26,0.25-2.52,0.49-3.76,0.72
			c-0.02,0-0.03,0.01-0.05,0.01c-3.48,0.65-6.88,1.24-10.19,1.77c-1.65,0.26-3.28,0.51-4.89,0.74h-0.01
			c-1.15,0.17-2.29,0.33-3.42,0.48c-2.31,0.32-4.57,0.6-6.79,0.86c-4.07,0.47-7.99,0.84-11.77,1.13c-4.09,0.31-8.01,0.53-11.77,0.65
			c-5.66,0.19-10.96,0.18-15.9,0.01c-3.55-0.12-6.92-0.32-10.1-0.59c-6.34-0.53-11.97-1.32-16.92-2.25
			c-20.63-3.88-29.6-10.17-29.6-10.17c-3.61-2.46-6.98-4.89-10.13-7.31c-0.21-0.16-0.42-0.32-0.63-0.49h-0.01c0,0,0,0-0.01,0
			c-8.33-6.44-15.05-12.69-20.43-18.71c-39-43.65-7.54-75.11-7.54-75.11c1.25-0.27,3-0.48,5.12-0.65c5.18-0.4,12.62-0.52,20.65-0.49
			c20.53,0.07,44.85,1.14,44.85,1.14c2.86-0.77,5.78-1.54,8.72-2.3c20.05-5.16,40.36-9.75,40.36-9.75l3.27-26.14
			c2.29-18.31,18.39-31.7,36.81-30.62l24.85,1.46l39.32,2.32c5.56,0.33,10.74,1.93,15.26,4.51l0.01,0.01
			c11.78,6.71,19.13,20.01,17.46,34.45l-2.69,23.31l-0.81,7.06c7.13,4.26,14.25,8.06,21.29,11.46
			c20.99,10.13,41.15,16.64,57.96,20.8C1223.85,581.69,1242.06,582.45,1242.06,582.45z"/>
		<path class="st8" d="M1139.34,554.3c-37.98-2.32-143.87-10.29-154.77-27.82c0,0,0.07,0.01,0.22,0.03
			c3.2,0.48,40.85,6.09,75.8,9.29c26.07,2.38,50.63,3.42,58.27-0.02l-0.81,7.06C1125.18,547.1,1132.3,550.9,1139.34,554.3z"/>
		<line class="st8" x1="974.74" y1="1255.78" x2="970.3" y2="1255.31"/>
		<path class="st8" d="M1005.74,724.95l92.93-9.98l-9.35,64.04c-2.84,19.45-18.27,34.63-37.76,37.16h0
			c-27.94,3.62-52-19.67-49.29-47.71L1005.74,724.95z"/>
		<path class="st8" d="M974.81,1331.01c0,0-0.97,0.8-2.79,2.16c-3.46,2.58-9.99,7.22-18.74,12.29c-0.69,0.4-1.39,0.8-2.11,1.2
			c-11.98,6.77-27.68,14.08-45.16,18.26c-14.92,3.57-31.14,4.87-47.43,1.61c-19.12-3.82-32.29-21.47-30.48-40.88
			c2.06-21.94,15.82-49.89,67.38-64.7c0.03-0.01,0.06-0.02,0.09-0.03l1.22,1.08l17.27,15.29l0.38,0.33l2.77,2.45l1.61,1.42h0.01
			l19.98,17.67l0.18,0.16l0.58,0.51l12.69,11.23l0.04,0.04l1.36,1.2l16.85,14.91l2.32,2.05L974.81,1331.01z"/>
	</g>
	<g>
		<path class="st8" d="M1174.61,743.32l-12.16,38.59l-47.66,15.21l-13.13-25.73v-43.27l-4.57-110.39l37.76-12.27
			c0,0,18.76,102.78,19.86,121.49L1174.61,743.32z"/>
		<path class="st18" d="M1029.88,1148.81l-6.05,76.05l-0.27,3.39l-0.3,3.67l-0.97,12.19l-0.77,9.71l-0.44,5.47l-0.49,6.19
			l-0.87,10.97l-0.41,5.17l-4.83,60.62l-24.12,4.8l-4.89,0.97l-15.83-63.21l-1.78-7.09l-0.26-1.04l0.01-0.9v-0.12l0.05-8.23
			l0.02-3.74l0.04-5.9l0.02-2.49l0.05-8.17l0.08-13.69l0.02-3.05l0.03-5.61l0.05-8.72v-0.01l0.41-65.89v-0.01l0.63-103l0.63-103.34
			v-0.01l0.13-19.69l0.03-5.13v-0.01l0.41-68.15v-0.01l0.06-9.21l9.78-6.67l34.69-23.66l8.29-5.65l0.2,10.03l0.04,1.82l1.78,89.42
			l0.02,0.95c-0.01,0.01,0,0.02,0,0.03l0.14,6.96c0,0.01,0,0.02,0,0.02l0.22,11.22l0.81,40.72l1,49.86v0.01l0.1,4.78v0.01
			l1.03,51.46v0.01L1029.88,1148.81z"/>
		<path class="st18" d="M1023.83,1224.86l-0.27,3.39l-0.3,3.67l-0.97,12.19c-21.26-8.12-54.48,2.99-54.48,2.99s-0.01,0.01-0.02,0.02
			l0.08-13.69l0.02-3.05l27.86-2.75L1023.83,1224.86z"/>
		<path class="st18" d="M960.68,845.5l-12.57,381l-0.17,5.16l-3.58,108.65l-43.91,2.61l-14.31-105.97l-4.86-35.96l-25.29-187.28
			c-32.72-167.05-4.37-188.47-4.37-188.47C872.34,853.59,960.68,845.5,960.68,845.5z"/>
		<path class="st18" d="M952.48,1228.17c-1.22,1.33-2.75,2.49-4.54,3.49c-17.9,10.06-60.81,4.33-60.81,4.33s-0.39,0.37-0.99,0.96
			l-4.86-35.96l66.83,25.51L952.48,1228.17z"/>
		<path class="st6" d="M936.56,1438.9c0,0-37.26,7.01-39.86-5.13c-0.19-0.84-0.18-1.79,0-2.84v-0.1c0.01,0,0.01,0,0.02,0
			c0.1-0.57,0.25-1.16,0.47-1.8c0,0,7.94-36.7,1.82-62.11c-0.26-1.11-0.56-2.2-0.88-3.26c-1.3-4.29-2.54-8.58-3.38-12.94
			c-3.96-20.5-12.99-73.76-3.25-74.05c0,0,5.57,4.71,18.21,6.55c0.68,0.1,1.38,0.19,2.11,0.27h0.01c7.28,0.82,16.65,0.68,28.37-1.64
			c1.98-0.38,4.02-0.83,6.13-1.36c0.24-0.05,0.47-0.11,0.71-0.17v0.36l-0.38,33.62l-0.38,33.16l-0.7,62.45
			C945.58,1409.91,957.89,1437.05,936.56,1438.9z"/>
		<path class="st6" d="M936.56,1438.9c0,0-37.26,7.01-39.86-5.13v-2.94c0.01,0,0.01,0,0.02,0c49.25,7.74,45.41-17.54,45.41-17.54
			l2.04-64.63l1.13-35.56l1.57-30.71l0.17-2.07v0.36l-0.38,33.62l-0.38,33.16l-0.7,62.45
			C945.58,1409.91,957.89,1437.05,936.56,1438.9z"/>
		<path class="st6" d="M1074.19,1420.07c-5.74,4.89-21.9,11.9-61.15-6.96c-0.16-0.07-0.32-0.15-0.48-0.23
			c-0.03,0.01-0.06,0.01-0.09,0.02c-0.09,0.01-0.18,0.03-0.27,0.04c-0.9,0.15-3.4,0.48-6.7,0.3c-4.23-0.24-9.77-1.34-14.92-4.79
			c0,0-0.04-1.06-0.12-2.91c-0.29-6.84-1.16-24.44-2.91-39.14c-0.16-1.3-0.32-2.58-0.49-3.82c0,0,0-0.01,0-0.02
			c-0.01-0.01-0.01-0.01-0.01-0.01c-0.93-6.87-2.08-12.77-3.49-16.09c-1.03-2.42-1.91-4.88-2.54-7.43
			c-2.95-11.95-10.01-41.26-12.76-58.67c-0.15-0.92-0.28-1.8-0.4-2.65c-0.09-0.67-0.18-1.32-0.25-1.94v-0.12
			c-0.53-4.1-0.66-7.1-0.19-8.33c0,0,0.08,0.04,0.24,0.1c0.39,0.16,1.27,0.5,2.6,0.9c6.54,2.01,24.02,5.68,48.32-2.17
			c0.66-0.21,1.33-0.44,2.01-0.67c0.59-0.2,1.19-0.41,1.79-0.63l8.43,73.03c0,0.04,0.01,0.09,0.01,0.15l5.26,45.6l0.03,0.22
			c0,0,0.09,0.06,0.25,0.17c0.33,0.23,0.98,0.68,1.89,1.31c2.87,2,8.3,5.8,14.21,10.12c0.14,0.1,0.26,0.19,0.38,0.27
			c8.32,6.08,17.47,13.09,21.72,17.45c0.46,0.48,0.8,1.03,1.01,1.62c0,0,0,0,0,0.01
			C1076.25,1416.61,1075.75,1418.74,1074.19,1420.07z"/>
		<path class="st6" d="M1005.5,1413.24c-4.23-0.24-9.77-1.34-14.92-4.79c0,0-0.04-1.06-0.12-2.91c-0.29-6.84-1.16-24.44-2.91-39.14
			c-0.16-1.3-0.32-2.58-0.49-3.82l0.94,3.56l10.74,40.62L1005.5,1413.24z"/>
		<path class="st8" d="M1101.67,772.81c0,0-176.21,123.87-250.04,52.43c0,0,0.61-8.07,1.85-19.63v-0.01
			c2.92-27.37,9.32-74.31,19.26-80.23l6.02-41.58l7.09-48.91l227.79-13.4l1.15,98.69C1114.79,720.17,1132.2,758.62,1101.67,772.81z"
			/>
		<ellipse class="st19" cx="1031.02" cy="631.24" rx="35.96" ry="44.29"/>
		<path class="st20" d="M1071.48,626.98l-9.65,44.76l-40.33,12.05l-16.13-13.87c0,0,4.27,39.77,5.69,38.83
			c1.42-0.95,64.53-14.38,64.53-14.38L1071.48,626.98z"/>
		<path class="st20" d="M1099.93,692.3c0,0,6.22-50.97,13.98-53.4c0,0-11.81,5.7-16.81,49.39v12.66L1099.93,692.3z"/>
		<path class="st20" d="M900.45,706.57L878.28,813.9l-12.3-36.65l-12.5,28.35c2.92-27.37,9.32-74.31,19.26-80.23l6.02-41.58
			L900.45,706.57z"/>
		<path class="st21" d="M1101.66,765.36c-0.25,2.8-0.5,5.47-0.74,7.96c-1.1,11.08-2.1,18.66-2.1,18.66l-7.38,22.32l-21.2,64.07
			l0.67,39.24l0.89,52.37l4.07,239.33c-9.65,8.08-20.69,14.24-32.51,18.18c-6.49,2.17-13.23,3.67-20.1,4.43
			c-0.47,0.06-0.94,0.11-1.42,0.16c-17.95,1.77-35.99,2.22-53.97,1.35c-1.23-0.05-2.46-0.12-3.69-0.19
			c-1.13-0.06-2.25-0.13-3.38-0.21c-4.29-0.29-8.58-0.65-12.87-1.09c-0.14-0.01-0.28-0.03-0.42-0.05
			c-4.81-0.49-9.61-1.08-14.39-1.76c-10.58-1.52-21.11-3.49-31.55-5.93l-18.25-8.14l-27.34-12.18l-2.33-202.43l-2.03-176.21v-0.01
			c0.94,0.07,1.87,0.13,2.79,0.17c8.72,0.37,17.1-0.71,25.1-2.93c4.13-1.15,8.17-2.6,12.1-4.33c2.56-1.12,5.08-2.35,7.56-3.69
			c1.39-0.74,2.76-1.52,4.12-2.33c21.92-13.08,40.26-34.02,54.49-54.72c22.34-32.48,34.55-64.36,34.55-64.36l-23.19-37.89
			l-14.64-23.92l0.19-0.4l8.08-16.71l11.84,15.54l18.07,23.71l12.69,16.64l14.63,19.2l32.39-4.87l19.99-3.01l-1.64-44.99l-0.19-5.12
			l-0.26-7.19l-1.22-33.48l25.4,17.15l0.48,14.88l0.19,5.7l1.95,60c1.1,0.85,2.04,2.22,2.84,4.01c0.09,0.21,0.18,0.43,0.27,0.65
			c1.26,3.14,2.13,7.43,2.7,12.47C1104.75,721.95,1103.32,746.59,1101.66,765.36z"/>
		<path class="st22" d="M880.05,937.35c0,0,140.15-23.28,149.18-38.81c0,0,1.32,129.73-34.83,136.51
			C994.41,1035.05,872.89,1090.19,880.05,937.35z"/>
		<path class="st8" d="M1043.36,1227.49c-6.49,2.17-13.23,3.67-20.1,4.43c-0.47,0.06-0.94,0.11-1.42,0.16
			c-17.95,1.77-35.99,2.22-53.97,1.35c-1.23-0.05-2.46-0.12-3.69-0.19c-1.13-0.06-2.25-0.13-3.38-0.21
			c-4.29-0.29-8.58-0.65-12.87-1.09c-0.14-0.01-0.28-0.03-0.42-0.05c-4.81-0.49-9.61-1.08-14.39-1.76
			c-10.58-1.52-21.11-3.49-31.55-5.93l-18.25-8.14l-27.34-12.18l-2.33-202.43l-2.03-176.21l5.94,200.06l4.61,155.56
			c0,0,5.78,6.07,18.27,13.88c12.36,7.71,31.29,17.12,57.69,24c3.27,0.86,6.66,1.67,10.16,2.44c4.23,0.93,8.64,1.79,13.22,2.57
			c0.99,0.17,1.99,0.33,3,0.5c1.12,0.17,2.26,0.35,3.41,0.52c8.68,1.28,17.95,2.26,27.83,2.86c8.78,0.54,18.05,0.76,27.81,0.62
			C1029.95,1228.16,1036.55,1227.91,1043.36,1227.49z"/>
		<path class="st20" d="M948.25,634.35c0,0,25.06,92.81,9.37,120.04l-31.39-76.73v-31.72L948.25,634.35z"/>
		<path class="st23" d="M1116.85,863.21l-4.18,9.9l-8.89,21.09l-1.78,4.21l-30.2,71.57l-5.47,12.96l-11.5,27.24l-26.46,62.72v0.01
			l-60.4,143.13v0.01l-3.46,8.2l-1.26,2.98l-2.45,5.8l-14,33.18l-6.6,15.64l-8.21,19.47l-3.66,8.67l-21.53-20.18l2.91-6.59l0.5-1.15
			l20.02-45.41l2.89-6.53l3.52-8.01l1.49-3.38l11.06-25.08l1.19-2.7l18-40.81v-0.01l48.84-110.78l0.03-0.05l9.99-22.66v-0.01
			l27.37-62.07l16.3-36.96l17.02-38.61c0,0,0.01-0.01,0.02-0.04l8.66-23.44l2.63-7.11L1116.85,863.21z"/>
		<path class="st24" d="M1023.09,923.91c0,0-44.74,25.7-57.17,25.66c0,0-2.01-21.43-1.46-21.43c0.55,0,29.27-13.94,29.27-13.94l27-2
			L1023.09,923.91z"/>
		<path class="st19" d="M1070.24,1008.95c0.06,6.22-7.45,9.38-11.91,5.03c-4.24-4.14-9.43-10.86-14.55-21.67l-26.56,47.05
			l2.39-31.83c0,0-12.25-43.7-9.6-49.32l-27.53-23.91l-10.21-8.87l0.28-2.77l2.37-23.38l35.09,12.91c0,0,1.72,1.51,4.54,4.04
			c2.25,2,5.21,4.66,8.54,7.68c11.6,10.58,27.75,25.74,34.63,34.29c1.78,2.2,3.1,4.74,3.93,7.46
			C1064.06,973.56,1070.08,994.66,1070.24,1008.95z"/>
		<path class="st19" d="M1023.09,923.91c0,0-33.34,12.3-34.09,12.3c-0.43,0-3.8-1.05-6.52-1.91l-10.21-8.87l0.28-2.77
			c5.54-1.98,13.77-4.33,13.77-4.33l28.23-2.1C1016.8,918.23,1019.76,920.89,1023.09,923.91z"/>
		<path class="st8" d="M1025.21,914.82c-0.42,3.92-1.49,7.34-2.12,9.09c-0.28,0.78,0,0,0,0c-1.74-6.34-14.43-1.49-14.43-1.49
			c-5.95,5.41-24.35,8.17-29.64,8.87c-0.92,0.12-1.44,0.18-1.44,0.18l-7.94,12.32v0.01l-3.72,5.77c-3.83,0.44-6.62-2.76-8.47-6.17
			c-1.96-3.59-2.88-7.4-2.88-7.4c-3.02-0.83-6.81-3.06-11.01-6.16c-10.6-7.85-23.74-21.24-33.21-31.46
			c-7.35-7.94-12.49-13.97-12.49-13.97c-0.87-1.26-1.71-2.64-2.52-4.12v-0.01c-5.02-9.16-8.96-22.34-12.05-36.87
			c-0.11-0.53-0.22-1.06-0.33-1.6c-0.25-1.19-0.49-2.38-0.72-3.59c-1.01-5.16-1.91-10.45-2.73-15.75c-0.44-2.86-0.85-5.72-1.24-8.57
			c-4.64-34.05-5.71-66.15-5.71-66.15c-0.89-7-1.33-14.06-1.43-21.04c-0.24-15.05,1.12-29.75,3.1-42.83v-0.01
			c0.44-2.86,0.9-5.65,1.38-8.35c4.34-24.25,10.23-41.17,10.23-41.17c0.01,0,0.01,0,0.01,0h0.01l1.51,0.44l14.14,4.05l24.71,7.09
			l13.02,3.73c1.39,0.86,2.68,2.53,3.9,4.91c7.7,15.06,12.04,58.29,14.47,99.81c0.06,1.01,0.12,2.02,0.17,3.02
			c2.07,36.43,2.68,70.98,2.85,83.32c0.04,3.08,0.05,4.78,0.05,4.78c2.68,0,5.98,2.05,9.53,5.3v0.01
			c13.81,12.64,31.47,43.55,31.47,43.55c15.89-0.82,21.65,5.49,23.22,12.6c0.06,0.3,0.12,0.59,0.17,0.89v0.01
			C1025.47,910.2,1025.44,912.59,1025.21,914.82z"/>
		<path class="st19" d="M1149.68,809.22l-11.36,37.35c3.53,7.08-5.9,46-5.9,46c-3.54,4.13-28.64,1.63-28.64,1.63
			c4.12-1.17,9.18-20.5,9.18-20.5c-10.62-22.41-25.03,5.3-25.03,5.3c-10.29,2.95-0.33-11.2,0.26-22.99
			c0.59-11.8,24.77-35.98,24.77-35.98v-43.05l33.61-8.26l1.35,12.19l1.23,11.07l1.16,10.43
			C1150.57,804.7,1150.35,807.01,1149.68,809.22z"/>
		<polygon class="st19" points="1149.16,780.44 1149.16,791.98 1149.15,791.98 1114.17,805.61 1112.96,806.4 1112.96,794.27 
			1147.92,780.91 		"/>
		<polygon class="st20" points="1174.61,743.32 1162.45,782.75 1112.96,797.12 1101.67,772.81 1154.71,726.95 		"/>
		<path class="st20" d="M1023.09,923.91c-1.74-6.34-14.43-1.49-14.43-1.49c-6.98,6.34-31.09,9.05-31.09,9.05l-11.66,18.1
			c-7.86,0.91-11.35-13.57-11.35-13.57c0.38-8.49,47.11-41.64,47.11-41.64C1036.59,892.56,1023.09,923.91,1023.09,923.91z"/>
		<path class="st6" d="M1235.06,584.45c-14.93,8.36-67.52,22.93-98.38,31.08c-13.38,3.53-22.67,5.85-23.04,5.95
			c-0.01,0-0.01,0-0.01,0c-5.5,2.11-10.88,4.1-16.14,5.97c-0.79,0.28-1.57,0.56-2.35,0.83c-1.66,0.59-3.31,1.16-4.94,1.72
			c-6.23,2.14-12.29,4.12-18.18,5.94c-0.43,0.14-0.86,0.27-1.28,0.4c-0.46,0.14-0.92,0.28-1.38,0.41c-0.92,0.29-1.84,0.56-2.75,0.83
			c-0.66,0.2-1.32,0.4-1.98,0.59c-0.05,0.02-0.11,0.04-0.16,0.05c-0.24,0.07-0.48,0.14-0.72,0.21c-0.55,0.17-1.1,0.33-1.65,0.48
			h-0.01c-4.8,1.4-9.48,2.68-14.05,3.87c-9.23,2.39-17.97,4.37-26.25,6.01c-1.26,0.25-2.52,0.49-3.76,0.72
			c-0.02,0-0.03,0.01-0.05,0.01c-3.48,0.65-6.88,1.24-10.19,1.77c-1.65,0.26-3.28,0.51-4.89,0.74h-0.01
			c-1.15,0.17-2.29,0.33-3.42,0.48c-2.31,0.32-4.57,0.6-6.79,0.86c-4.07,0.47-7.99,0.84-11.77,1.13c-4.09,0.31-8.01,0.53-11.77,0.65
			c-5.66,0.19-10.96,0.18-15.9,0.01c-3.55-0.12-6.92-0.32-10.1-0.59c-6.34-0.53-11.97-1.32-16.92-2.25
			c-20.63-3.88-29.6-10.17-29.6-10.17c-3.61-2.46-6.98-4.89-10.13-7.31c-0.21-0.16-0.42-0.32-0.63-0.49h-0.01c0,0,0,0-0.01,0
			c-8.33-6.44-15.05-12.69-20.43-18.71c-39-43.65-7.54-75.11-7.54-75.11c1.25-0.27,3-0.48,5.12-0.65c5.18-0.4,12.62-0.52,20.65-0.49
			c20.53,0.07,44.85,1.14,44.85,1.14c2.86-0.77,5.78-1.54,8.72-2.3c20.05-5.16,40.36-9.75,40.36-9.75l3.27-26.14
			c2.29-18.31,18.39-31.7,36.81-30.62l24.85,1.46l39.32,2.32c5.56,0.33,10.74,1.93,15.26,4.51l0.01,0.01
			c11.78,6.71,19.13,20.01,17.46,34.45l-2.69,23.31l-0.81,7.06c7.13,4.26,14.25,8.06,21.29,11.46
			c20.99,10.13,41.15,16.64,57.96,20.8C1216.85,583.69,1235.06,584.45,1235.06,584.45z"/>
		<path class="st6" d="M1132.34,556.3c-37.98-2.32-143.87-10.29-154.77-27.82c0,0,0.07,0.01,0.22,0.03
			c3.2,0.48,40.85,6.09,75.8,9.29c26.07,2.38,50.63,3.42,58.27-0.02l-0.81,7.06C1118.18,549.1,1125.3,552.9,1132.34,556.3z"/>
		<line class="st25" x1="967.74" y1="1257.78" x2="963.3" y2="1257.31"/>
		<path class="st22" d="M998.74,726.95l92.93-9.98l-9.35,64.04c-2.84,19.45-18.27,34.63-37.76,37.16h0
			c-27.94,3.62-52-19.67-49.29-47.71L998.74,726.95z"/>
		<path class="st26" d="M967.81,1333.01c0,0-0.97,0.8-2.79,2.16c-3.46,2.58-9.99,7.22-18.74,12.29c-0.69,0.4-1.39,0.8-2.11,1.2
			c-11.98,6.77-27.68,14.08-45.16,18.26c-14.92,3.57-31.14,4.87-47.43,1.61c-19.12-3.82-32.29-21.47-30.48-40.88
			c2.06-21.94,15.82-49.89,67.38-64.7c0.03-0.01,0.06-0.02,0.09-0.03l1.22,1.08l17.27,15.29l0.38,0.33l2.77,2.45l1.61,1.42h0.01
			l19.98,17.67l0.18,0.16l0.58,0.51l12.69,11.23l0.04,0.04l1.36,1.2l16.85,14.91l2.32,2.05L967.81,1333.01z"/>
	</g>
	<path class="st8" d="M1418.99,1388.4c0-14.68-17.9-26.71-40.67-27.89c1.82-3.37,2.81-6.96,2.81-10.68
		c0-19.28-26.26-34.91-58.66-34.91c-28.47,0-52.2,12.07-57.53,28.09c-4.08-0.7-8.43-1.09-12.94-1.09
		c-23.7,0-42.92,10.49-42.92,23.43c0,1.69,0.33,3.33,0.95,4.91c-19.69,0.47-35.41,10.36-35.41,22.48
		c0,12.43,16.52,22.51,36.89,22.51c3.18,0,6.26-0.25,9.2-0.71c20.53,6.22,51.59,10.19,86.35,10.19
		c61.82,0,111.94-12.54,111.94-28.02c0-1.09-0.26-2.17-0.74-3.23C1418.73,1391.83,1418.99,1390.14,1418.99,1388.4z"/>
	<path class="st16" d="M1418.99,1398.4c0-14.68-17.9-26.71-40.67-27.89c1.82-3.37,2.81-6.96,2.81-10.68
		c0-19.28-26.26-34.91-58.66-34.91c-28.47,0-52.2,12.07-57.53,28.09c-4.08-0.7-8.43-1.09-12.94-1.09
		c-23.7,0-42.92,10.49-42.92,23.43c0,1.69,0.33,3.33,0.95,4.91c-19.69,0.47-35.41,10.36-35.41,22.48
		c0,12.43,16.52,22.51,36.89,22.51c3.18,0,6.26-0.25,9.2-0.71c20.53,6.22,51.59,10.19,86.35,10.19
		c61.82,0,111.94-12.54,111.94-28.02c0-1.09-0.26-2.17-0.74-3.23C1418.73,1401.83,1418.99,1400.14,1418.99,1398.4z"/>
	<ellipse class="st16" cx="1303.73" cy="1350.65" rx="15.08" ry="8.15"/>
	<ellipse class="st16" cx="1250.61" cy="1388.06" rx="25.13" ry="8.23"/>
	<ellipse class="st16" cx="1317.73" cy="1388.06" rx="14" ry="8.23"/>
	<path class="st8" d="M1012.2,1412.94c-2.06,0.34-12.47,1.65-21.62-4.49c0,0-0.04-1.06-0.12-2.91h0.01
		C990.47,1405.54,1004.01,1414.2,1012.2,1412.94z"/>
	<path class="st8" d="M1012.2,1412.94c0.11-0.02,0.21-0.03,0.27-0.04C1012.38,1412.91,1012.29,1412.93,1012.2,1412.94z"/>
	<path class="st8" d="M1074.19,1420.07c-5.74,4.89-21.9,11.9-61.15-6.96c49.53,18.17,62.04,2.34,62.53,1.69
		C1076.25,1416.61,1075.75,1418.74,1074.19,1420.07z"/>
	<path class="st8" d="M936.56,1438.9c0,0-45.93,8.64-39.37-9.87c7.94,10.59,28.88,8.5,37.57,7.1c4.99-0.8,9.26-4.23,10.78-9.05
		c2.43-7.71,0.04-17.17,0.04-17.17S957.89,1437.05,936.56,1438.9z"/>
	<g>
		<g>
			<path class="st8" d="M1436.8,1449.49c0.64,0,0.64-0.99,0-0.99C1436.16,1448.49,1436.16,1449.49,1436.8,1449.49L1436.8,1449.49z"
				/>
		</g>
	</g>
	<path class="st6" d="M987.06,1362.56c-0.01-0.01-0.01-0.01-0.01-0.01c-0.93-6.87-2.08-12.77-3.49-16.09
		c-1.03-2.42-1.91-4.88-2.54-7.43c-2.95-11.95-10.01-41.26-12.76-58.67c-0.02-0.44-0.04-0.86-0.06-1.28
		c-0.34-7.28-0.54-11.66-0.54-11.66s4.53,24.31,9.75,48.4c0,0.02,0,0.04,0.01,0.06c4.75,21.95,10.07,43.7,13.04,46.67
		C996.58,1368.67,987.45,1362.8,987.06,1362.56z"/>
	<g>
		<g>
			<path class="st6" d="M1039.14,1490.88c0.64,0,0.64-0.99,0-0.99C1038.51,1489.89,1038.5,1490.88,1039.14,1490.88L1039.14,1490.88z
				"/>
		</g>
	</g>
	<g>
		<g>
			<path class="st6" d="M969.98,1466.28c0.64,0,0.64-0.99,0-0.99C969.34,1465.29,969.34,1466.28,969.98,1466.28L969.98,1466.28z"/>
		</g>
	</g>
	<path class="st8" d="M1052.46,1395.45c-5.91-4.32-11.34-8.12-14.21-10.12c-0.91-0.63-1.56-1.08-1.89-1.31
		c-0.16-0.11-0.25-0.17-0.25-0.17l-5.74-49.8l-7.99-69.2l11.42,118.02c0.16,1.62,1.13,3.04,2.58,3.78
		C1040.58,1388.79,1049.3,1393.29,1052.46,1395.45z"/>
	<path class="st16" d="M967.81,1333.01c0,0-0.97,0.8-2.79,2.16c-3.46,2.58-9.99,7.22-18.74,12.29c-0.69,0.4-1.39,0.8-2.11,1.2
		c-11.98,6.77-27.68,14.08-45.16,18.26c-14.92,3.57-31.14,4.87-47.43,1.61c-19.12-3.82-32.29-21.47-30.48-40.88
		c2.06-21.94,15.82-49.89,67.38-64.7l1.31,1.05c-21.12,1.19-36.17,18.43-45.85,35.01c-15.79,27.05,4.16,61.09,35.46,60.26
		c35.45-0.93,76.98-22.78,86.43-28.01L967.81,1333.01z"/>
	<g>
		<path class="st16" d="M932.57,1301.83c-5.53,7.9-18.47,14.1-24.72,16.32c-2.26,0.81-4.5,1.2-6.61,1.2c-3.58,0-6.79-1.14-9.16-3.35
			c-3.41-3.19-4.48-8.14-2.94-13.58c2.64-9.36,16.82-22.14,17.92-23.13c0.02-0.02,0.04-0.03,0.05-0.04l0.33,0.37l0.34,0.38
			c-0.15,0.13-15.07,13.45-17.68,22.69c-1.43,5.07-0.46,9.65,2.66,12.58c3.49,3.26,9.01,3.99,14.76,1.94
			c6.17-2.19,18.96-8.31,24.29-16.05l0.18,0.16L932.57,1301.83z"/>
	</g>
	<path class="st27" d="M1097.09,480.02l-0.01-0.01c-4.52-2.58-9.7-4.18-15.26-4.51l-39.32-2.32c-48.58,6.01-64.93,55.3-64.93,55.3
		s-113.8,67.53,133.48,16.36l3.5-30.37C1116.22,500.03,1108.87,486.73,1097.09,480.02z"/>
	<path class="st8" d="M943.14,654.57c0,0-6.92,2.4-16.92,5.7c-12.99,4.28-31.16,10.08-46.1,14.07c-1.54,0.41-3.05,0.81-4.51,1.18
		c4.34-24.25,10.23-41.17,10.23-41.17c-68.71-53.08-27.97-93.82-27.97-93.82c1.25-0.27,3-0.48,5.12-0.65
		c-5.36,26.82-5.65,67.87,31.65,94.48c2.16,1.55,4.45,3.05,6.87,4.48c7.05,4.2,15.24,7.94,24.71,11.08
		C931.45,651.66,937.09,653.22,943.14,654.57z"/>
	<path class="st16" d="M1023.18,1257.76l-0.49,6.19c0.59-0.2,1.19-0.41,1.79-0.63l8.43,73.03c0,0.04,0.01,0.09,0.01,0.15l5.26,45.6
		l0.03,0.22c0,0,0.09,0.06,0.25,0.17c0.33,0.23,0.98,0.68,1.89,1.31c2.87,2,8.3,5.8,14.21,10.12c0.14,0.1,0.26,0.19,0.38,0.27
		c8.32,6.08,17.47,13.09,21.72,17.45c0.46,0.48,0.8,1.03,1.01,1.62c0,0,0,0,0,0.01c0.68,1.81,0.18,3.94-1.38,5.27
		c-5.74,4.89-21.9,11.9-61.15-6.96c-0.16-0.07-0.32-0.15-0.48-0.23c-0.03,0.01-0.06,0.01-0.09,0.02c-0.09,0.01-0.18,0.03-0.27,0.04
		c-0.9,0.15-3.4,0.48-6.7,0.3c-4.23-0.24-9.77-1.34-14.92-4.79c0,0-0.04-1.06-0.12-2.91c-0.29-6.84-1.16-24.44-2.91-39.14
		c0.15-0.09,0.3-0.17,0.45-0.26c2.23-1.24,4.66-2.37,7.3-3.38c0,0-1.96-5.85-4.94-15.72c-3.44-11.34-8.23-27.99-12.96-47.16
		c-2.46-9.97-4.91-20.63-7.14-31.56c-0.88-4.31-1.72-8.66-2.52-13.03c-1.34-7.33-2.55-14.72-3.56-22.05
		c-0.27-1.88-0.52-3.77-0.76-5.64c0,0-0.01-0.01,0.01-0.04c-0.06-0.11-0.12-0.22-0.18-0.33c-0.57-1.05-1.15-2.21-1.74-3.48
		c-3.55-7.71-7.36-19.38-11.13-32.79c-0.32-1.17-0.65-2.36-0.98-3.56c-7.04-25.71-13.82-56.9-18.34-78.88l0.01-0.04
		c-1.69-8.2-3.07-15.13-4.01-20.03c-0.96-4.88-1.48-7.73-1.48-7.78h-0.01c0,0-7.06-10.71-14.4-42.64
		c-5.04-21.96-10.21-53.94-13.3-99.37c-1.19-17.42-2.07-36.81-2.53-58.37v-0.01c-0.23-10.86-0.35-22.27-0.34-34.25v-1.73l-0.03-0.23
		l-3.36-25.93l-5.48-42.29v-0.01l-4.95-38.24l-4.82-37.29v-0.01l-2.13-16.42v-0.01c0.44-2.86,0.9-5.65,1.38-8.35
		c4.34-24.25,10.23-41.17,10.23-41.17c0.01,0,0.01,0,0.01,0h0.01c0.21,0.17,0.42,0.33,0.63,0.49c3.15,2.42,6.52,4.85,10.13,7.31
		c0,0,8.97,6.29,29.6,10.17c4.95,0.93,10.58,1.72,16.92,2.25c3.18,0.27,6.55,0.47,10.1,0.59c4.94,0.17,10.24,0.18,15.9-0.01
		c3.76-0.12,7.68-0.34,11.77-0.65c3.78-0.29,7.7-0.66,11.77-1.13c2.22-0.26,4.48-0.54,6.79-0.86c1.13-0.15,2.27-0.31,3.42-0.48h0.01
		c1.61-0.23,3.24-0.48,4.89-0.74c3.31-0.53,6.71-1.12,10.19-1.77c0.02,0,0.03-0.01,0.05-0.01c1.24-0.23,2.5-0.47,3.76-0.72
		l1.03,5.43l-0.01,0.03c0.6,0.51,1.19,1.01,1.76,1.53c5.78,4.96,11.52,10.5,17.19,16.57c0.26,0.28,0.53,0.56,0.79,0.84
		c0.43,0.45,0.85,0.91,1.29,1.37c0.61,0.66,1.21,1.33,1.81,2c2.27,2.52,4.52,5.11,6.74,7.78c3.44,4.1,6.84,8.38,10.17,12.81
		c5.12,6.77,10.09,13.91,14.89,21.35c0.82,1.26,1.63,2.52,2.43,3.8l5.09,40.54v0.01l2.43,19.34l4.04,32.11l3.41,27.17v0.01
		l1.76,14.04l1.42,11.25l3.97,31.64l-30.2,71.57l4.07,239.33c-9.65,8.08-20.69,14.24-32.51,18.18c-6.49,2.17-13.23,3.67-20.1,4.43
		l-0.97,12.19l-0.77,9.71L1023.18,1257.76z"/>
	<path class="st8" d="M1402.82,595.96l270.15-112.15l-65.93,20.13c0,0-56.97-25.41-30.32,6.02c0,0-46.84-0.55-33.02,7.73
		c0,0-96.19-18.48-54.51,15.71c0,0-81.15-5.28-50.64,21.79c0,0,12.6,5.39-2,12.89c-7.43,3.82-14.28,8.71-20.23,14.58L1402.82,595.96
		z"/>
	<path class="st8" d="M802.31,630.42L630.13,503.57c5.33-11.44,11-22.69,17.01-33.73c9.54,12.76,17.82,28.77,17.82,28.77
		c7.78-53.35,41.6,38.58,41.6,38.58c-0.03-16.11,23.67,24.29,23.67,24.29c13.17-39.04,20.81,22.87,20.81,22.87L802.31,630.42z"/>
	<g>
		<linearGradient id="SVGID_3_" gradientUnits="userSpaceOnUse" x1="1008.3751" y1="177.6919" x2="1411.8834" y2="844.5588">
			<stop  offset="0" style="stop-color:#F8EBDC"/>
			<stop  offset="1" style="stop-color:#F69D84"/>
		</linearGradient>
		<path class="st28" d="M1114.57,298.37l-0.16,0.13c-2.2,1.96-3.75,3.21-3.75,3.21c0.06,1.43,0.06,2.78,0.02,4.05
			c-0.85,22.75-18.11,21.37-18.11,21.37c-0.78,7.31-15.4,18.87-15.4,18.87l14.83-33.77l3.27-7.44
			c-17.72,5.01-25.04-11.16-25.04-11.16c-4.7,3.26-29.48,4.31-32.44,4.42c-0.19,0.01-0.29,0.01-0.29,0.01l-11.16,6.73l-9.24-10.4
			l14.63-3.08c0.35-0.07,0.71-0.17,1.09-0.29c7.99-2.34,22.4-12.81,22.4-12.81c-0.36-0.04-0.72-0.19-1.07-0.43
			c-3.01-2-5.49-10.35-5.49-10.35c-1.83,0.68-3.62,1.16-5.33,1.44c-16.7,2.86-27.78-11.06-27.78-11.06
			c-18.87,5.01-23.49-2.31-23.49-2.31c0.69-6.23,43.27-9.34,51.98-9.92c0.99-0.06,1.55-0.1,1.55-0.1
			c26.57-7.31,35.42,7.32,35.42,7.32c3.38,6.32,6.38,9.46,8.85,10.91c1.16,0.67,2.2,0.97,3.1,1.05c2.43,0.22,3.83-1.19,3.83-1.19
			c19.25-11.93,23.49-4.62,23.49-4.62c4.52,3.2,1.58,7.59-2.61,11.25c-4.36,3.83-10.1,6.85-10.1,6.85l10.78-2.31
			C1140.84,272.93,1123.07,290.75,1114.57,298.37z"/>
		<polygon class="st22" points="1120.29,258.97 1131.84,256.28 1122.55,262.4 		"/>
		<path class="st22" d="M1048.67,267.44c-3.89,1.45-7.55,1.95-10.9,1.81h-0.01c-0.43-0.01-0.87-0.05-1.31-0.1h-0.01
			c-0.41-0.02-0.8-0.07-1.2-0.14h-0.01c-1.69-0.22-3.28-0.6-4.78-1.09c-0.31-0.11-0.62-0.22-0.92-0.32
			c-0.3-0.11-0.59-0.22-0.86-0.34c-1.69-0.67-3.22-1.46-4.61-2.3c-0.23-0.14-0.47-0.28-0.68-0.43c-0.23-0.13-0.46-0.28-0.67-0.42
			h-0.01c-1.53-1.03-2.84-2.07-3.89-3.02c-0.19-0.17-0.37-0.32-0.55-0.49c-0.19-0.17-0.36-0.34-0.53-0.5
			c-1.4-1.33-2.16-2.28-2.16-2.28c-6.56,1.74-11.4,1.99-14.93,1.57h-0.02c-0.67-0.07-1.28-0.18-1.84-0.31h-0.02
			c-0.54-0.11-1.03-0.23-1.49-0.37h-0.01c-2.62-0.8-4.06-1.98-4.72-2.65c-0.32-0.34-0.46-0.55-0.46-0.55
			c0.02-0.22,0.1-0.43,0.22-0.63c3.39-5.81,43.35-8.73,51.76-9.28l0.52,2.44l0.12,0.59l0.13,0.59l0.41,1.92l0.12,0.6l0.13,0.58
			l0.3,1.45l0.13,0.59l0.12,0.59l0.5,2.36l0.12,0.59l0.12,0.59l0.54,2.56l0.13,0.59l0.12,0.58l0.32,1.51l0.12,0.6l0.13,0.6
			L1048.67,267.44z"/>
		<path class="st22" d="M1037.8,298.04c-0.19,0.01-0.29,0.01-0.29,0.01l-11.16,6.73l-0.69-0.78l-0.4-0.46l-0.41-0.46l-2.46-2.76
			l-0.42-0.47l-0.41-0.48l-2.42-2.72l-0.44-0.49l-0.43-0.49l-1.16-1.31l14.63-3.08c0.35-0.07,0.71-0.17,1.09-0.29l0.01,0.08
			l0.1,0.61l0.1,0.6l0.32,2.12l0.05,0.28l0.3,0.23l0.56,0.42l1.76,1.34l0.53,0.4l0.52,0.4L1037.8,298.04z"/>
		<g>
			<g>
				<line class="st29" x1="1044.68" y1="248.62" x2="992.07" y2="255.51"/>
			</g>
			<g>
				<path class="st22" d="M1044.82,249.21l-52.29,6.85c-0.32-0.34-0.46-0.55-0.46-0.55c0.02-0.22,0.1-0.43,0.22-0.63l52.27-6.84
					l0.12,0.59L1044.82,249.21z"/>
			</g>
		</g>
		<g>
			<g>
				<line class="st29" x1="1045.34" y1="251.72" x2="998.77" y2="259.08"/>
			</g>
			<g>
				<path class="st22" d="M1045.48,252.3l-44.84,7.09h-0.02c-0.67-0.07-1.28-0.18-1.84-0.31h-0.02c-0.54-0.11-1.03-0.23-1.49-0.37
					l47.96-7.58l0.12,0.6L1045.48,252.3z"/>
			</g>
		</g>
		<g>
			<g>
				<line class="st29" x1="1045.91" y1="254.33" x2="1018.25" y2="260.6"/>
			</g>
			<g>
				<path class="st22" d="M1046.03,254.92l-27.23,6.17c-0.19-0.17-0.37-0.32-0.55-0.49c-0.19-0.17-0.36-0.34-0.53-0.5l28.05-6.35
					l0.13,0.59L1046.03,254.92z"/>
			</g>
		</g>
		<g>
			<g>
				<line class="st29" x1="1046.65" y1="257.87" x2="1023.37" y2="264.53"/>
			</g>
			<g>
				<path class="st22" d="M1046.77,258.45l-22.71,6.5c-0.23-0.14-0.47-0.28-0.68-0.43c-0.23-0.13-0.46-0.28-0.67-0.42l23.83-6.83
					l0.12,0.59L1046.77,258.45z"/>
			</g>
		</g>
		<g>
			<g>
				<line class="st29" x1="1047.44" y1="261.6" x2="1029.53" y2="267.59"/>
			</g>
			<g>
				<path class="st22" d="M1047.56,262.18l-17.11,5.74c-0.31-0.11-0.62-0.22-0.92-0.32c-0.3-0.11-0.59-0.22-0.86-0.34l18.64-6.24
					l0.13,0.59L1047.56,262.18z"/>
			</g>
		</g>
		<g>
			<g>
				<line class="st29" x1="1048" y1="264.29" x2="1036.46" y2="269.15"/>
			</g>
			<g>
				<path class="st22" d="M1048.13,264.89l-10.36,4.36h-0.01c-0.43-0.01-0.87-0.05-1.31-0.1h-0.01c-0.41-0.02-0.8-0.07-1.2-0.14
					l12.64-5.32l0.12,0.6L1048.13,264.89z"/>
			</g>
		</g>
		<g>
			<g>
				<line class="st29" x1="1033.7" y1="294.94" x2="1021.97" y2="299.87"/>
			</g>
			<g>
				<polygon class="st22" points="1034.26,295.36 1022.39,300.34 1021.97,299.87 1021.57,299.4 1033.35,294.44 1033.4,294.71 
					1033.7,294.94 				"/>
			</g>
		</g>
		<g>
			<g>
				<line class="st29" x1="1036.55" y1="297.1" x2="1025.26" y2="303.55"/>
			</g>
			<g>
				<polygon class="st22" points="1037.07,297.49 1025.65,304.01 1025.26,303.55 1024.85,303.1 1036.02,296.7 1036.55,297.1 				"/>
			</g>
		</g>
		<g>
			<g>
				<line class="st29" x1="1032.93" y1="291.72" x2="1018.7" y2="296.19"/>
			</g>
			<g>
				<polygon class="st22" points="1033.03,292.32 1019.15,296.68 1018.7,296.19 1018.27,295.69 1032.84,291.11 1032.93,291.72 				
					"/>
			</g>
		</g>
		<linearGradient id="SVGID_4_" gradientUnits="userSpaceOnUse" x1="1071.7258" y1="263.7806" x2="1096.3676" y2="321.7914">
			<stop  offset="0" style="stop-color:#F8EBDC"/>
			<stop  offset="1" style="stop-color:#997B6C"/>
		</linearGradient>
		<path class="st30" d="M1114.57,298.37l-0.16,0.13c-2.2,1.96-3.75,3.21-3.75,3.21v0.07c0.06,1.4,0.06,2.73,0.02,3.98
			c-6.26,2.22-13.61,4.73-18.69,6.47l3.27-7.44c-17.72,5.01-25.04-11.16-25.04-11.16c-4.7,3.26-29.48,4.31-32.44,4.42
			c-0.19,0.01-4.4-3.33-4.4-3.33s71.31-30.2,84.28-24.5c-4.36,3.83-10.1,6.85-10.1,6.85l2.23-0.48l8.55-1.83
			C1140.84,272.93,1123.07,290.75,1114.57,298.37z"/>
		<linearGradient id="SVGID_5_" gradientUnits="userSpaceOnUse" x1="1132.5713" y1="297.9189" x2="1007.0525" y2="214.3681">
			<stop  offset="0" style="stop-color:#F8EBDC"/>
			<stop  offset="1" style="stop-color:#F69D84"/>
		</linearGradient>
		<path class="st31" d="M1114.57,298.37l-0.16,0.13c-2.2,1.96-3.75,3.21-3.75,3.21v0.07l-0.4,0.01
			c12.09-22.59-6.89-22.89-6.89-22.89l6.43-2.31l8.55-1.83C1140.84,272.93,1123.07,290.75,1114.57,298.37z"/>
		<linearGradient id="SVGID_6_" gradientUnits="userSpaceOnUse" x1="1085.0386" y1="269.9416" x2="1038.3219" y2="258.6475">
			<stop  offset="0" style="stop-color:#F8EBDC"/>
			<stop  offset="1" style="stop-color:#997B6C"/>
		</linearGradient>
		<path class="st32" d="M1093.53,264.78c-5.61,4.6-16.29,10.76-38.31,13.44c-3.39-0.25-6.55-10.78-6.55-10.78
			c-0.19-1.53-3.89-18.4-3.89-18.4s23.51-5.54,27.18,9.04c0,0,1.75,13.1,18.47,5.65C1091.59,264.39,1092.63,264.69,1093.53,264.78z"
			/>
		<circle class="st22" cx="1113.83" cy="262.49" r="1.81"/>
		<path class="st22" d="M1110.73,301.65l-0.01,0.01c-0.04,0.04-0.06,0.05-0.06,0.05v0.17c0.44,10.74-2.38,16.93-5.93,20.48
			c-0.28,0.29-0.56,0.55-0.85,0.8c-0.26,0.23-0.54,0.46-0.81,0.66c-1.38,1.04-2.81,1.76-4.16,2.26h-0.01
			c-0.48,0.17-0.95,0.32-1.4,0.44c-1.14,0.31-2.17,0.47-2.99,0.54c-0.52,0.06-0.96,0.07-1.28,0.07c-0.42,0.01-0.65-0.01-0.65-0.01
			c-0.25,2.31-1.88,5.06-4,7.73c-0.65,0.8-1.32,1.59-2.02,2.37c-4.19,4.64-9.07,8.52-9.37,8.76l18.09-41.19l1.43,1.03l1.02,0.73
			l2,1.43l1.01,0.73l0.46,0.32l2.91-2.31l1.71-1.37l3.38-2.68l0.83-0.66l0.8-0.65C1110.81,301.36,1111.06,301.38,1110.73,301.65z"/>
		<g>
			<g>
				<path class="st22" d="M1097.71,306.55l-9.14,28.31c-0.65,0.8-1.32,1.59-2.02,2.37l10.15-31.41L1097.71,306.55z"/>
			</g>
		</g>
		<g>
			<g>
				<path class="st22" d="M1100.72,308.7l-6.22,18.36c-0.52,0.06-0.96,0.07-1.28,0.07l6.49-19.17L1100.72,308.7z"/>
			</g>
		</g>
		<g>
			<g>
				<path class="st22" d="M1105.8,305.35l-6.89,20.73h-0.01c-0.48,0.17-0.95,0.32-1.4,0.44l6.59-19.81L1105.8,305.35z"/>
			</g>
		</g>
		<g class="st33">
			<g>
				<g>
					<polyline class="st29" points="1103.88,323.16 1110,302.01 1110.71,299.55 					"/>
				</g>
				<g>
					<path class="st22" d="M1110.81,301.36l-0.07,0.29l-0.01,0.01l-0.06,0.22l-5.93,20.48c-0.28,0.29-0.56,0.55-0.85,0.8
						c-0.26,0.23-0.54,0.46-0.81,0.66l6.11-21.15l0.83-0.66L1110.81,301.36z"/>
				</g>
			</g>
		</g>
	</g>
	<g>
		<linearGradient id="SVGID_7_" gradientUnits="userSpaceOnUse" x1="1253.5056" y1="682.1219" x2="1420.9095" y2="958.7857">
			<stop  offset="0" style="stop-color:#F8EBDC"/>
			<stop  offset="1" style="stop-color:#F69D84"/>
		</linearGradient>
		<path class="st34" d="M1297.56,732.19l-0.06,0.05c-0.91,0.82-1.56,1.33-1.56,1.33c0.02,0.59,0.02,1.15,0.01,1.68
			c-0.35,9.44-7.51,8.87-7.51,8.87c-0.32,3.03-6.39,7.83-6.39,7.83l6.15-14.01l1.36-3.09c-7.35,2.08-10.39-4.63-10.39-4.63
			c-1.95,1.35-12.23,1.79-13.46,1.83c-0.08,0-0.12,0-0.12,0l-4.63,2.79l-3.83-4.31l6.07-1.28c0.14-0.03,0.29-0.07,0.45-0.12
			c3.31-0.97,9.29-5.31,9.29-5.31c-0.15-0.01-0.3-0.08-0.44-0.18c-1.25-0.83-2.28-4.29-2.28-4.29c-0.76,0.28-1.5,0.48-2.21,0.6
			c-6.93,1.19-11.52-4.59-11.52-4.59c-7.83,2.08-9.75-0.96-9.75-0.96c0.29-2.58,17.95-3.88,21.56-4.11
			c0.41-0.02,0.64-0.04,0.64-0.04c11.02-3.03,14.7,3.04,14.7,3.04c1.4,2.62,2.65,3.93,3.67,4.53c0.48,0.28,0.91,0.4,1.29,0.44
			c1.01,0.09,1.59-0.49,1.59-0.49c7.99-4.95,9.75-1.92,9.75-1.92c1.87,1.33,0.66,3.15-1.08,4.67c-1.81,1.59-4.19,2.84-4.19,2.84
			l4.47-0.96C1308.46,721.64,1301.09,729.03,1297.56,732.19z"/>
		<polygon class="st22" points="1299.94,715.84 1304.73,714.72 1300.87,717.26 		"/>
		<path class="st22" d="M1270.22,719.35c-1.62,0.6-3.13,0.81-4.52,0.75h-0.01c-0.18,0-0.36-0.02-0.54-0.04h-0.01
			c-0.17-0.01-0.33-0.03-0.5-0.06h-0.01c-0.7-0.09-1.36-0.25-1.98-0.45c-0.13-0.04-0.26-0.09-0.38-0.13
			c-0.12-0.04-0.24-0.09-0.36-0.14c-0.7-0.28-1.34-0.61-1.91-0.95c-0.09-0.06-0.19-0.11-0.28-0.18c-0.09-0.05-0.19-0.11-0.28-0.17
			h-0.01c-0.64-0.43-1.18-0.86-1.62-1.25c-0.08-0.07-0.15-0.13-0.23-0.2c-0.08-0.07-0.15-0.14-0.22-0.21
			c-0.58-0.55-0.89-0.94-0.89-0.94c-2.72,0.72-4.73,0.82-6.19,0.65h-0.01c-0.28-0.03-0.53-0.07-0.77-0.13h-0.01
			c-0.22-0.04-0.43-0.09-0.62-0.15h0c-1.09-0.33-1.68-0.82-1.96-1.1c-0.13-0.14-0.19-0.23-0.19-0.23c0.01-0.09,0.04-0.18,0.09-0.26
			c1.41-2.41,17.98-3.62,21.47-3.85l0.21,1.01l0.05,0.24l0.05,0.24l0.17,0.8l0.05,0.25l0.05,0.24l0.12,0.6l0.05,0.24l0.05,0.24
			l0.21,0.98l0.05,0.24l0.05,0.24l0.22,1.06l0.05,0.24l0.05,0.24l0.13,0.63l0.05,0.25l0.05,0.25L1270.22,719.35z"/>
		<path class="st22" d="M1265.71,732.05c-0.08,0-0.12,0-0.12,0l-4.63,2.79l-0.29-0.32l-0.16-0.19l-0.17-0.19l-1.02-1.14l-0.17-0.19
			l-0.17-0.2l-1-1.13l-0.18-0.2l-0.18-0.2l-0.48-0.54l6.07-1.28c0.14-0.03,0.29-0.07,0.45-0.12l0.01,0.03l0.04,0.25l0.04,0.25
			l0.13,0.88l0.02,0.11l0.12,0.09l0.23,0.17l0.73,0.56l0.22,0.16l0.21,0.16L1265.71,732.05z"/>
		<g>
			<g>
				<line class="st29" x1="1268.57" y1="711.55" x2="1246.74" y2="714.4"/>
			</g>
			<g>
				<path class="st22" d="M1268.62,711.79l-21.69,2.84c-0.13-0.14-0.19-0.23-0.19-0.23c0.01-0.09,0.04-0.18,0.09-0.26l21.69-2.84
					l0.05,0.24L1268.62,711.79z"/>
			</g>
		</g>
		<g>
			<g>
				<line class="st29" x1="1268.84" y1="712.83" x2="1249.52" y2="715.89"/>
			</g>
			<g>
				<path class="st22" d="M1268.9,713.07l-18.6,2.94h-0.01c-0.28-0.03-0.53-0.07-0.77-0.13h-0.01c-0.22-0.04-0.43-0.09-0.62-0.15
					l19.9-3.15l0.05,0.25L1268.9,713.07z"/>
			</g>
		</g>
		<g>
			<g>
				<line class="st29" x1="1269.08" y1="713.92" x2="1257.6" y2="716.52"/>
			</g>
			<g>
				<path class="st22" d="M1269.13,714.16l-11.3,2.56c-0.08-0.07-0.15-0.13-0.23-0.2c-0.08-0.07-0.15-0.14-0.22-0.21l11.64-2.63
					l0.05,0.24L1269.13,714.16z"/>
			</g>
		</g>
		<g>
			<g>
				<line class="st29" x1="1269.38" y1="715.38" x2="1259.73" y2="718.15"/>
			</g>
			<g>
				<path class="st22" d="M1269.43,715.63l-9.42,2.7c-0.09-0.06-0.19-0.11-0.28-0.18c-0.09-0.05-0.19-0.11-0.28-0.17l9.88-2.83
					l0.05,0.24L1269.43,715.63z"/>
			</g>
		</g>
		<g>
			<g>
				<line class="st29" x1="1269.71" y1="716.93" x2="1262.28" y2="719.42"/>
			</g>
			<g>
				<path class="st22" d="M1269.76,717.17l-7.1,2.38c-0.13-0.04-0.26-0.09-0.38-0.13c-0.12-0.04-0.24-0.09-0.36-0.14l7.73-2.59
					l0.05,0.24L1269.76,717.17z"/>
			</g>
		</g>
		<g>
			<g>
				<line class="st29" x1="1269.95" y1="718.05" x2="1265.16" y2="720.07"/>
			</g>
			<g>
				<path class="st22" d="M1270,718.3l-4.3,1.81h-0.01c-0.18,0-0.36-0.02-0.54-0.04h-0.01c-0.17-0.01-0.33-0.03-0.5-0.06l5.24-2.21
					l0.05,0.25L1270,718.3z"/>
			</g>
		</g>
		<g>
			<g>
				<line class="st29" x1="1264.01" y1="730.76" x2="1259.15" y2="732.81"/>
			</g>
			<g>
				<polygon class="st22" points="1264.25,730.94 1259.32,733.01 1259.15,732.81 1258.98,732.61 1263.87,730.56 1263.89,730.67 
					1264.01,730.76 				"/>
			</g>
		</g>
		<g>
			<g>
				<line class="st29" x1="1265.2" y1="731.66" x2="1260.51" y2="734.34"/>
			</g>
			<g>
				<polygon class="st22" points="1265.41,731.82 1260.67,734.53 1260.51,734.34 1260.34,734.15 1264.98,731.5 1265.2,731.66 				
					"/>
			</g>
		</g>
		<g>
			<g>
				<line class="st29" x1="1263.69" y1="729.43" x2="1257.79" y2="731.28"/>
			</g>
			<g>
				<polygon class="st22" points="1263.73,729.68 1257.97,731.49 1257.79,731.28 1257.61,731.08 1263.65,729.17 1263.69,729.43 				
					"/>
			</g>
		</g>
		<linearGradient id="SVGID_8_" gradientUnits="userSpaceOnUse" x1="1279.788" y1="717.8376" x2="1290.0111" y2="741.9046">
			<stop  offset="0" style="stop-color:#F8EBDC"/>
			<stop  offset="1" style="stop-color:#997B6C"/>
		</linearGradient>
		<path class="st35" d="M1297.56,732.19l-0.06,0.05c-0.91,0.82-1.56,1.33-1.56,1.33v0.03c0.02,0.58,0.02,1.13,0.01,1.65
			c-2.6,0.92-5.65,1.96-7.75,2.68l1.36-3.09c-7.35,2.08-10.39-4.63-10.39-4.63c-1.95,1.35-12.23,1.79-13.46,1.83
			c-0.08,0-1.82-1.38-1.82-1.38s29.58-12.53,34.97-10.16c-1.81,1.59-4.19,2.84-4.19,2.84l0.92-0.2l3.55-0.76
			C1308.46,721.64,1301.09,729.03,1297.56,732.19z"/>
		<linearGradient id="SVGID_9_" gradientUnits="userSpaceOnUse" x1="1305.031" y1="732.0006" x2="1252.9569" y2="697.3378">
			<stop  offset="0" style="stop-color:#F8EBDC"/>
			<stop  offset="1" style="stop-color:#F69D84"/>
		</linearGradient>
		<path class="st36" d="M1297.56,732.19l-0.06,0.05c-0.91,0.82-1.56,1.33-1.56,1.33v0.03l-0.16,0c5.01-9.37-2.86-9.5-2.86-9.5
			l2.67-0.96l3.55-0.76C1308.46,721.64,1301.09,729.03,1297.56,732.19z"/>
		<linearGradient id="SVGID_10_" gradientUnits="userSpaceOnUse" x1="1285.311" y1="720.3937" x2="1265.9297" y2="715.7081">
			<stop  offset="0" style="stop-color:#F8EBDC"/>
			<stop  offset="1" style="stop-color:#997B6C"/>
		</linearGradient>
		<path class="st37" d="M1288.83,718.25c-2.33,1.91-6.76,4.46-15.89,5.58c-1.41-0.1-2.72-4.47-2.72-4.47
			c-0.08-0.64-1.62-7.63-1.62-7.63s9.75-2.3,11.28,3.75c0,0,0.73,5.44,7.66,2.35C1288.03,718.09,1288.46,718.22,1288.83,718.25z"/>
		<circle class="st22" cx="1297.25" cy="717.3" r="0.75"/>
		<path class="st22" d="M1295.97,733.55L1295.97,733.55c-0.02,0.02-0.03,0.02-0.03,0.02v0.07c0.18,4.46-0.99,7.02-2.46,8.5
			c-0.11,0.12-0.23,0.23-0.35,0.33c-0.11,0.09-0.22,0.19-0.34,0.27c-0.57,0.43-1.17,0.73-1.72,0.94h-0.01
			c-0.2,0.07-0.39,0.13-0.58,0.18c-0.47,0.13-0.9,0.19-1.24,0.22c-0.21,0.02-0.4,0.03-0.53,0.03c-0.17,0.01-0.27,0-0.27,0
			c-0.1,0.96-0.78,2.1-1.66,3.21c-0.27,0.33-0.55,0.66-0.84,0.98c-1.74,1.92-3.76,3.53-3.89,3.63l7.5-17.09l0.59,0.43l0.42,0.3
			l0.83,0.59l0.42,0.3l0.19,0.13l1.21-0.96l0.71-0.57l1.4-1.11l0.34-0.27l0.33-0.27C1296,733.43,1296.11,733.44,1295.97,733.55z"/>
		<g>
			<g>
				<path class="st22" d="M1290.57,735.58l-3.79,11.74c-0.27,0.33-0.55,0.66-0.84,0.98l4.21-13.03L1290.57,735.58z"/>
			</g>
		</g>
		<g>
			<g>
				<path class="st22" d="M1291.82,736.47l-2.58,7.62c-0.21,0.02-0.4,0.03-0.53,0.03l2.69-7.95L1291.82,736.47z"/>
			</g>
		</g>
		<g>
			<g>
				<path class="st22" d="M1293.92,735.08l-2.86,8.6h-0.01c-0.2,0.07-0.39,0.13-0.58,0.18l2.73-8.22L1293.92,735.08z"/>
			</g>
		</g>
		<g class="st33">
			<g>
				<g>
					<polyline class="st29" points="1293.13,742.47 1295.67,733.7 1295.96,732.68 					"/>
				</g>
				<g>
					<path class="st22" d="M1296,733.43l-0.03,0.12l-0.01,0l-0.02,0.09l-2.46,8.5c-0.11,0.12-0.23,0.23-0.35,0.33
						c-0.11,0.09-0.22,0.19-0.34,0.27l2.53-8.78l0.34-0.27L1296,733.43z"/>
				</g>
			</g>
		</g>
	</g>
	<linearGradient id="SVGID_11_" gradientUnits="userSpaceOnUse" x1="579.6948" y1="619.0699" x2="1402.8147" y2="619.0699">
		<stop  offset="0" style="stop-color:#D2F1F9;stop-opacity:0.5"/>
		<stop  offset="0.3862" style="stop-color:#E0F5FB;stop-opacity:0.3069"/>
		<stop  offset="1" style="stop-color:#FFFFFF;stop-opacity:0"/>
	</linearGradient>
	<path class="st38" d="M1402.81,259.38L614.1,978.75c-16.2-41.99-27.87-86.23-34.41-132.13L1402.81,259.38z"/>
	<linearGradient id="SVGID_12_" gradientUnits="userSpaceOnUse" x1="820.4848" y1="816.3499" x2="1480.2947" y2="816.3499">
		<stop  offset="0" style="stop-color:#D2F1F9;stop-opacity:0.5"/>
		<stop  offset="0.3862" style="stop-color:#E0F5FB;stop-opacity:0.3069"/>
		<stop  offset="1" style="stop-color:#FFFFFF;stop-opacity:0"/>
	</linearGradient>
	<path class="st39" d="M820.48,1249.24c261.52-382.58,639.66-938.39,659.81-982.91l-344.48,1100.03
		C1018.23,1357.61,909.96,1315.41,820.48,1249.24z"/>
	<linearGradient id="SVGID_13_" gradientUnits="userSpaceOnUse" x1="1480.3047" y1="264.9999" x2="1481.1382" y2="264.9999">
		<stop  offset="0" style="stop-color:#D2F1F9;stop-opacity:0.5"/>
		<stop  offset="0.3862" style="stop-color:#E0F5FB;stop-opacity:0.3069"/>
		<stop  offset="1" style="stop-color:#FFFFFF;stop-opacity:0"/>
	</linearGradient>
	<path class="st40" d="M1481.12,263.68c0.08,0.37-0.2,1.26-0.82,2.63L1481.12,263.68z"/>
	<linearGradient id="SVGID_14_" gradientUnits="userSpaceOnUse" x1="1460.5447" y1="859.1599" x2="1645.5647" y2="859.1599">
		<stop  offset="0" style="stop-color:#D2F1F9;stop-opacity:0.5"/>
		<stop  offset="0.3862" style="stop-color:#E0F5FB;stop-opacity:0.3069"/>
		<stop  offset="1" style="stop-color:#FFFFFF;stop-opacity:0"/>
	</linearGradient>
	<path class="st41" d="M1645.56,1153.03c-34.74,40.98-74.81,77.29-119.15,107.87c-0.63,0.44-1.25,0.87-1.88,1.3
		c-20.46,14-41.83,26.78-63.99,38.24l88.84-882.57L1645.56,1153.03z"/>
	<circle class="st9" cx="1232.09" cy="1116.58" r="15.73"/>
	<path class="st8" d="M1313.8,1153.57l-13.22,26.23l-0.77,1.52l-30.34-11.51l4.66,11.48l15.21,37.42l6.86,16.89
		c0,0-81.21,15.63-82.56,11.13c-0.47-1.55-0.61-10.87-0.6-22.44c0.02-22.12,0.6-52.45,0.6-52.45l-10.15,35.79l-25.88-26.31
		l44.53-41.91c0,0,18.36,8.66,29.77-6.91L1313.8,1153.57z"/>
	<path class="st16" d="M1310.79,1153.96l-13.22,26.23l-0.77,1.52l-30.34-11.51l4.66,11.48l15.21,37.42l6.86,16.89
		c0,0-81.21,15.63-82.56,11.13c-0.47-1.55-0.61-10.87-0.6-22.44c0.02-22.12,0.6-52.45,0.6-52.45l-10.15,35.79l-25.88-26.31
		l47.53-42.3c0,0,17.8,8.46,29.21-7.11L1310.79,1153.96z"/>
	<path class="st16" d="M1286.33,1219.1l6.86,16.89c0,0-81.21,15.63-82.56,11.13c-0.47-1.55-0.61-10.87-0.6-22.44
		c2.54,10.18,8.43,21.84,22.05,20.44l50.17-13.26L1286.33,1219.1z"/>
	<polygon class="st16" points="1297.57,1180.19 1296.8,1181.71 1266.46,1170.2 1271.12,1181.68 1260.95,1167.78 1274.88,1169.83 
		1281.43,1162.05 	"/>
	<line class="st42" x1="1216.36" y1="1162.05" x2="1220.99" y2="1171.88"/>
	<line class="st42" x1="1220.99" y1="1158.94" x2="1226.76" y2="1170.11"/>
	<line class="st42" x1="1213.22" y1="1168.29" x2="1224.67" y2="1160.34"/>
	<line class="st42" x1="1215.88" y1="1171.88" x2="1228.57" y2="1164.52"/>
	<linearGradient id="SVGID_15_" gradientUnits="userSpaceOnUse" x1="1103.3595" y1="1293.5725" x2="1158.4843" y2="1338.2682">
		<stop  offset="0" style="stop-color:#D1EC72"/>
		<stop  offset="0.1507" style="stop-color:#D6EE80;stop-opacity:0.8493"/>
		<stop  offset="0.4369" style="stop-color:#E2F3A6;stop-opacity:0.5631"/>
		<stop  offset="0.8254" style="stop-color:#F5FBE2;stop-opacity:0.1746"/>
		<stop  offset="1" style="stop-color:#FFFFFF;stop-opacity:0"/>
	</linearGradient>
	<path class="st43" d="M1186.12,1299.3l-1.45,1.48l-39.91,40.76c-22.75-1.26-45.16-3.77-67.16-7.48l46.25-33.28L1186.12,1299.3z"/>
	<linearGradient id="SVGID_16_" gradientUnits="userSpaceOnUse" x1="1233.7062" y1="1302.7578" x2="1275.604" y2="1336.729">
		<stop  offset="0" style="stop-color:#D1EC72"/>
		<stop  offset="0.1507" style="stop-color:#D6EE80;stop-opacity:0.8493"/>
		<stop  offset="0.4369" style="stop-color:#E2F3A6;stop-opacity:0.5631"/>
		<stop  offset="0.8254" style="stop-color:#F5FBE2;stop-opacity:0.1746"/>
		<stop  offset="1" style="stop-color:#FFFFFF;stop-opacity:0"/>
	</linearGradient>
	<path class="st44" d="M1302.94,1299.3l-1.45,1.48l-34.67,35.41c-19.21,2.78-38.72,4.67-58.47,5.6l32.33-41.01L1302.94,1299.3z"/>
</g>
<g>
	<g>
		<path class="st13" d="M1738.38,1314.58c0.64,0,0.64-0.99,0-0.99C1737.74,1313.58,1737.74,1314.58,1738.38,1314.58L1738.38,1314.58
			z"/>
	</g>
</g>
<line class="st45" x1="1353.85" y1="298.19" x2="839.57" y2="766.19"/>
<line class="st45" x1="1425.85" y1="534.76" x2="1199.57" y2="1097.9"/>
<line class="st45" x1="1564.71" y1="473.04" x2="1559.57" y2="1033.61"/>
<path class="st16" d="M1615.91,1437.11c0,0-3.35-93.82,90.47-97.17C1706.38,1339.93,1602.5,1390.2,1615.91,1437.11z"/>
<g>
	<g>
		<path class="st16" d="M1547.89,1549.43c0.64,0,0.64-0.99,0-0.99C1547.25,1548.44,1547.25,1549.43,1547.89,1549.43L1547.89,1549.43
			z"/>
	</g>
</g>
<path class="st16" d="M1615.06,1434.37c0,0-0.59-120.24-46.34-138.42C1568.72,1295.95,1620.92,1373.96,1615.06,1434.37z"/>
</svg>
